<?xml version="1.0" encoding="UTF-8"?>
<svg version="1.1" xmlns="http://www.w3.org/2000/svg" width="130" height="60">
<path d="M0 0 C2.31 0 4.62 0 7 0 C7.02505615 0.95366455 7.0501123 1.9073291 7.07592773 2.88989258 C7.17012071 6.42909107 7.27031231 9.96809875 7.37231445 13.50708008 C7.41561833 15.03861018 7.45729667 16.57018715 7.49731445 18.10180664 C7.55512732 20.30369182 7.61878969 22.50534211 7.68359375 24.70703125 C7.70030624 25.39150833 7.71701874 26.07598541 7.73423767 26.78120422 C7.8273555 29.77120104 8.04687437 32.14062311 9 35 C14.28 35.33 19.56 35.66 25 36 C25 33.36 25 30.72 25 28 C25.80485627 24.55497128 27.30326954 21.77414496 29.6875 19.125 C34.64536012 16.71306805 38.57926876 16.59745948 43.75 18.0625 C47.5768653 20.34390047 49.10047635 21.97300987 51 26 C51.80851635 32.36706622 50.83189904 35.85718813 47 41 C44.125 43.0625 44.125 43.0625 41 44 C37.625 43.1875 37.625 43.1875 35 42 C35 38 35 38 37 36 C37.845625 35.731875 38.69125 35.46375 39.5625 35.1875 C42.23535329 34.23628044 42.23535329 34.23628044 42.875 31.5625 C43.16089524 28.87922826 43.16089524 28.87922826 42 26 C38.71303767 25.20046862 37.28976808 24.90341064 34 26 C32.47893366 29.04213267 32.62570662 32.28047572 32.4375 35.625 C32.37272461 36.68460938 32.37272461 36.68460938 32.30664062 37.765625 C32.20055249 39.51018537 32.09977111 41.25506697 32 43 C27.77119589 43.14541967 23.54303587 43.23411527 19.3125 43.3125 C18.11431641 43.35439453 16.91613281 43.39628906 15.68164062 43.43945312 C5.76229504 43.57760557 5.76229504 43.57760557 2.73046875 40.66796875 C-0.20144692 36.14765632 -0.13349837 32.25977721 -0.09765625 27.05078125 C-0.0962413 26.27816452 -0.09482635 25.50554779 -0.09336853 24.70951843 C-0.08777466 22.24380611 -0.07522333 19.77818485 -0.0625 17.3125 C-0.05748421 15.63997527 -0.05292144 13.96744912 -0.04882812 12.29492188 C-0.03780724 8.19657954 -0.02054684 4.09830521 0 0 Z " fill="#FCFEFE" transform="translate(51,11)"/>
<path d="M0 0 C3 1.375 3 1.375 6 4 C6.28630496 6.65048985 6.13058478 9.01488614 5.8203125 11.66015625 C5.75859349 14.13367309 5.75859349 14.13367309 7.73828125 15.78125 C11.44626732 17.77933576 13.81498032 17.46500219 18 17 C21.36644916 13.82658118 21.46366644 10.72667116 21.6875 6.25 C21.75324219 5.07953125 21.81898437 3.9090625 21.88671875 2.703125 C21.92410156 1.81109375 21.96148437 0.9190625 22 0 C24.31 0 26.62 0 29 0 C30.329729 7.73266319 30.23946421 13.24774079 26 20 C23.61876423 22.88634639 22.55323733 23.81558756 19 25 C13.40585644 25.49241379 8.57108942 25.74420025 3.4375 23.3125 C0.13100887 20.17557252 -1.80166625 17.62292455 -2.36328125 13.02734375 C-2.33814453 11.49787109 -2.33814453 11.49787109 -2.3125 9.9375 C-2.30863281 8.91527344 -2.30476562 7.89304687 -2.30078125 6.83984375 C-2.0062144 4.05867366 -1.42886736 2.37385534 0 0 Z " fill="#FDFEFE" transform="translate(13,29)"/>
<path d="M0 0 C2.31 0 4.62 0 7 0 C7 11.55 7 23.1 7 35 C4.69 35 2.38 35 0 35 C0 23.45 0 11.9 0 0 Z " fill="#FFFFFF" transform="translate(110,19)"/>
<path d="M0 0 C-0.33 0.99 -0.66 1.98 -1 3 C-3.31 3 -5.62 3 -8 3 C-7.67 4.32 -7.34 5.64 -7 7 C-4.36 7.33 -1.72 7.66 1 8 C1 9.32 1 10.64 1 12 C-3.95 12 -8.9 12 -14 12 C-14 10.68 -14 9.36 -14 8 C-13.34 7.67 -12.68 7.34 -12 7 C-11.896875 6.05125 -11.79375 5.1025 -11.6875 4.125 C-11 1 -11 1 -8.8125 -1 C-5.1785583 -2.29206816 -3.45718448 -1.52759314 0 0 Z " fill="#FAFDFD" transform="translate(120,3)"/>
<path d="M0 0 C0 4.29 0 8.58 0 13 C-6.61764706 9.02941176 -6.61764706 9.02941176 -9 7 C-9 6.34 -9 5.68 -9 5 C-7.5390625 3.7109375 -7.5390625 3.7109375 -5.625 2.375 C-4.99851562 1.92898437 -4.37203125 1.48296875 -3.7265625 1.0234375 C-2 0 -2 0 0 0 Z " fill="#C86538" transform="translate(29,17)"/>
<path d="" fill="#03A3BF" transform="translate(0,0)"/>
</svg>
