<svg width="40" height="40" viewBox="0 0 40 40" fill="none" xmlns="http://www.w3.org/2000/svg">
<g clip-path="url(#clip0_336_5885)">
<path d="M19.7265 29.7656L9.72653 33.5938C9.2656 33.7656 8.78122 33.4141 8.80466 32.9219L9.35153 22.2266C9.35935 22.0625 9.30466 21.8984 9.2031 21.7656L2.46872 13.4375C2.15622 13.0547 2.34372 12.4844 2.82028 12.3516L13.164 9.57031C13.3281 9.52344 13.4687 9.42188 13.5547 9.28125L19.3984 0.3125C19.664 -0.101562 20.2734 -0.101562 20.539 0.3125L26.3828 9.28906C26.4765 9.42969 26.6172 9.53125 26.7734 9.57812L37.1172 12.3594C37.5937 12.4844 37.7812 13.0625 37.4687 13.4453L30.7422 21.7734C30.6406 21.9063 30.5859 22.0703 30.5937 22.2344L31.1406 32.9297C31.164 33.4219 30.6797 33.7734 30.2187 33.6016L20.2187 29.7734C20.0547 29.7109 19.8828 29.7109 19.7265 29.7656Z" fill="#FFB636"/>
<path d="M35.6328 4.03911L32.4297 0.83599C32.3359 0.74224 32.2109 0.703177 32.0859 0.718802C31.9609 0.734427 31.8437 0.812552 31.7812 0.921927L28.4766 7.42974C28.3828 7.5938 28.4141 7.78911 28.5469 7.92193C28.625 8.00005 28.7344 8.03911 28.8359 8.03911C28.9062 8.03911 28.9766 8.02349 29.0391 7.98443L35.5391 4.68755C35.6484 4.62505 35.7266 4.51568 35.7422 4.38286C35.7656 4.25786 35.7187 4.13286 35.6328 4.03911ZM11.6484 7.43755L8.34374 0.92974C8.28124 0.820365 8.17187 0.74224 8.03905 0.726615C7.91405 0.71099 7.78124 0.750052 7.6953 0.843802L4.49218 4.04693C4.39843 4.14068 4.35937 4.26568 4.37499 4.39068C4.39062 4.51568 4.46874 4.63286 4.57812 4.69536L11.0859 8.00005C11.1484 8.03911 11.2187 8.05474 11.2891 8.05474C11.3984 8.05474 11.5 8.01568 11.5781 7.93755C11.7109 7.79693 11.7344 7.5938 11.6484 7.43755ZM22.6406 39.4688L20.375 32.5313C20.3594 32.461 20.3203 32.3985 20.2734 32.3516C20.1953 32.2735 20.0937 32.2344 19.9844 32.2344C19.7969 32.2344 19.6406 32.3594 19.5859 32.5391L17.3203 39.4766C17.2891 39.6016 17.3125 39.7344 17.3906 39.836C17.4687 39.9376 17.5859 40.0001 17.7187 40.0001H22.2422C22.3672 40.0001 22.4922 39.9376 22.5703 39.836C22.6562 39.7266 22.6797 39.5938 22.6406 39.4688Z" fill="#FFD469"/>
</g>
<defs>
<clipPath id="clip0_336_5885">
<rect width="40" height="40" fill="white"/>
</clipPath>
</defs>
</svg>
