<?xml version="1.0" encoding="UTF-8"?>
<svg version="1.1" xmlns="http://www.w3.org/2000/svg" width="2000" height="636">
<path d="M0 0 C0.87833496 0.18191895 1.75666992 0.36383789 2.66162109 0.55126953 C8.51488994 1.79624346 14.26232076 3.30310955 20 5 C20.92312988 5.27295898 21.84625977 5.54591797 22.79736328 5.82714844 C58.09307555 16.49068361 91.69670715 34.07179261 118.51953125 59.63671875 C120.58271868 61.60243276 122.68224201 63.43419411 124.875 65.25 C136.81739435 75.68414164 146.75870216 88.18241497 156 101 C156.4429541 101.61278809 156.8859082 102.22557617 157.34228516 102.85693359 C194.84986551 155.37907358 209.8440232 222.27167311 200 285.84765625 C192.00010892 333.28045752 171.81996202 378.18246668 139.0859375 413.73046875 C137.15845324 415.8276005 135.29238643 417.96376355 133.4375 420.125 C91.94790093 467.63728281 28.02751489 493.94575437 -33.875 498.6875 C-98.02819308 502.03826525 -164.39539113 481.30677645 -212.5625 438.125 C-214.04205279 436.75041549 -215.52125342 435.37545178 -217 434 C-218.35022913 432.82877852 -219.70426491 431.66192767 -221.0625 430.5 C-268.15315481 389.39061788 -296.06346146 326.09209281 -300.53320312 264.39086914 C-300.70888335 261.59454846 -300.86154902 258.79838797 -301 256 C-301.03996094 255.27683594 -301.07992187 254.55367188 -301.12109375 253.80859375 C-303.18273282 211.66869117 -291.84154235 167.0381127 -272 130 C-271.65372559 129.34596191 -271.30745117 128.69192383 -270.95068359 128.01806641 C-261.55378797 110.43840355 -249.85903222 94.05355857 -236.28515625 79.47265625 C-234.37096117 77.40139901 -232.55412389 75.29085299 -230.75 73.125 C-196.19579335 33.55355491 -143.79223765 8.63018512 -93 -1 C-92.2167334 -1.16226074 -91.4334668 -1.32452148 -90.62646484 -1.49169922 C-61.81410084 -7.33375419 -28.63842665 -6.11562822 0 0 Z " fill="#FEFEFE" transform="translate(411,69)"/>
<path d="M0 0 C1.01716599 -0.0038269 2.03433197 -0.00765381 3.08232117 -0.01159668 C5.23156729 -0.01431478 7.38084654 -0.00696078 9.5300293 0.00976562 C12.8026811 0.03110953 16.07312094 0.00999401 19.34570312 -0.015625 C21.43880689 -0.01298041 23.53190929 -0.00785272 25.625 0 C26.59609207 -0.00809692 27.56718414 -0.01619385 28.56770325 -0.02453613 C36.25899277 0.08039061 42.56919349 2.08558325 48.19921875 7.53125 C56.08224572 16.26448951 58.4546161 29.49793885 61.64660645 40.56182861 C62.46628469 43.40290197 63.29404529 46.2415094 64.12402344 49.07958984 C65.00236082 52.08348321 65.88016681 55.08752173 66.75552368 58.09228516 C69.90629187 68.90697748 73.10900587 79.70607727 76.32327271 90.50204468 C77.25257943 93.62553189 78.17902818 96.74985688 79.10522461 99.87426758 C79.67287289 101.78340794 80.24065545 103.69250839 80.80859375 105.6015625 C81.19831108 106.91874016 81.19831108 106.91874016 81.59590149 108.26252747 C81.83463486 109.06292953 82.07336823 109.8633316 82.31933594 110.68798828 C82.52661316 111.385784 82.73389038 112.08357971 82.94744873 112.80252075 C83.49181698 114.61444815 83.49181698 114.61444815 84.51171875 116.53125 C88.04783109 106.22493993 91.24744416 95.85342464 94.27484131 85.38772583 C95.03340168 82.76889245 95.79750125 80.15172873 96.56298828 77.53491211 C99.10198773 68.84941939 101.62231581 60.15905843 104.10479736 51.45722961 C105.24603384 47.46573115 106.39861178 43.47755602 107.55297852 39.48983765 C108.10333374 37.57811875 108.64852845 35.66490573 109.18823242 33.75015259 C116.45053017 8.00100181 116.45053017 8.00100181 127.51171875 1.53125 C130.27747725 0.6093305 131.99725253 0.39086402 134.85620117 0.35424805 C135.73108688 0.34141281 136.6059726 0.32857758 137.50737 0.31535339 C138.45110977 0.30796646 139.39484955 0.30057953 140.3671875 0.29296875 C141.34279129 0.284897 142.31839508 0.27682526 143.32356262 0.26850891 C145.39057645 0.25467469 147.45761305 0.24394958 149.5246582 0.23608398 C152.66988083 0.21891019 155.81404148 0.1750223 158.95898438 0.13085938 C160.97004438 0.12072857 162.98111329 0.11221368 164.9921875 0.10546875 C165.92580612 0.08796066 166.85942474 0.07045258 167.82133484 0.05241394 C175.03862726 0.07612108 180.12343626 1.72460317 185.70336914 6.34667969 C189.86925305 11.19996316 192.14319992 15.67040063 193.94921875 21.78125 C194.23450439 22.68907227 194.51979004 23.59689453 194.8137207 24.53222656 C195.74169857 27.5240815 196.63228914 30.52478346 197.51171875 33.53125 C197.95354492 35.03945312 197.95354492 35.03945312 198.40429688 36.578125 C200.02888441 42.16417978 201.61803602 47.75979922 203.1953125 53.359375 C205.73071038 62.3538784 208.34220873 71.3260929 210.96304321 80.29602051 C211.48923172 82.09806183 212.01446303 83.90038296 212.53866577 85.70300293 C216.46232428 100.31314428 216.46232428 100.31314428 221.51171875 114.53125 C222.17171875 114.86125 222.83171875 115.19125 223.51171875 115.53125 C223.63468826 114.85184357 223.75765778 114.17243713 223.88435364 113.47244263 C224.6083281 110.07832921 225.56043283 106.7990494 226.54956055 103.47216797 C226.85719078 102.43420578 226.85719078 102.43420578 227.17103577 101.37527466 C227.84879389 99.09066618 228.52978559 96.80703622 229.2109375 94.5234375 C229.68852868 92.91704658 230.16596849 91.31061065 230.64326477 89.70413208 C231.64642253 86.3295128 232.65112991 82.95535999 233.65698242 79.58154297 C234.92925349 75.31381733 236.19814863 71.04509733 237.46601391 66.77606106 C246.3039416 37.02339236 246.3039416 37.02339236 250.04296875 25.02734375 C250.26220505 24.31492523 250.48144135 23.60250671 250.70732117 22.86849976 C253.58485699 13.76757245 257.19166434 7.65051177 265.36328125 2.58984375 C268.90315812 0.84564987 272.09545054 0.40464991 276.01733398 0.37011719 C277.34407387 0.35570587 277.34407387 0.35570587 278.69761658 0.34100342 C279.64560623 0.33675354 280.59359589 0.33250366 281.5703125 0.328125 C283.0422683 0.31957489 283.0422683 0.31957489 284.54396057 0.31085205 C286.61759364 0.30141516 288.69124162 0.29487328 290.76489258 0.29101562 C293.9340221 0.2812966 297.1025066 0.25025518 300.27148438 0.21875 C302.28775657 0.21222086 304.3040334 0.20697004 306.3203125 0.203125 C307.73926064 0.1846048 307.73926064 0.1846048 309.18687439 0.16571045 C317.67605086 0.19441206 317.67605086 0.19441206 321.51171875 3.53125 C324.2542498 7.96872545 323.43006107 11.59466186 322.51171875 16.53125 C321.79373875 19.21653649 321.03004322 21.79189258 320.14453125 24.41796875 C319.59765488 26.09543383 319.05113636 27.77301559 318.50488281 29.45068359 C318.19280884 30.39957458 317.88073486 31.34846558 317.5592041 32.32611084 C316.37608798 35.94625867 315.21439632 39.57303605 314.05761719 43.20166016 C313.83865563 43.88846485 313.61969408 44.57526955 313.39409733 45.28288651 C312.93645559 46.71862857 312.47886885 48.15438816 312.02133369 49.59016418 C310.82152703 53.35269764 309.61804725 57.11405562 308.41479492 60.87548828 C307.91465283 62.43930756 307.41452069 64.00313002 306.91439819 65.56695557 C306.66348293 66.35151375 306.41256767 67.13607193 306.15404892 67.9444046 C299.63236819 88.33688396 293.1129983 108.72951618 286.69921875 129.15625 C282.52981457 142.42808631 278.20992139 155.64314769 273.76171875 168.82421875 C272.30946582 173.12867181 270.89103473 177.44116568 269.51171875 181.76953125 C269.0482605 183.20897095 269.0482605 183.20897095 268.57543945 184.67749023 C268.01832125 186.41248888 267.46907026 188.15004841 266.93041992 189.89086914 C264.73448351 196.67720531 261.65190536 203.30364489 256.01171875 207.90625 C255.46515625 208.36773437 254.91859375 208.82921875 254.35546875 209.3046875 C249.18545043 212.7440641 244.38949359 212.86404824 238.37109375 212.90234375 C237.48947571 212.91137222 236.60785767 212.9204007 235.69952393 212.92970276 C233.83698914 212.94418018 231.97440378 212.95308575 230.11181641 212.95678711 C227.28459269 212.96865399 224.4595742 213.01783748 221.6328125 213.06835938 C219.81641681 213.07782833 218.00000782 213.0850611 216.18359375 213.08984375 C215.34890564 213.10937607 214.51421753 213.12890839 213.65423584 213.14903259 C205.53773849 213.08767953 199.58093737 209.73879753 193.7890625 204.17578125 C189.09346595 198.36597535 187.25447117 191.23635376 185.07421875 184.21875 C184.57419032 182.66192036 184.07251131 181.10562007 183.56933594 179.54980469 C182.16644529 175.18960949 180.79196596 170.82093554 179.42486572 166.44940186 C178.46420753 163.37941799 177.49894123 160.3109115 176.53271484 157.24267578 C171.00600853 139.68576423 171.00600853 139.68576423 168.29516602 130.9519043 C167.65412654 128.88971234 167.01277249 126.82761813 166.37109375 124.765625 C166.05969955 123.76465286 165.74830536 122.76368073 165.42747498 121.7323761 C162.7356177 113.13393704 159.88784218 104.5903089 156.96185303 96.06878662 C156.64089661 95.12344055 156.31994019 94.17809448 155.98925781 93.20410156 C155.70342834 92.37187073 155.41759888 91.53963989 155.12310791 90.68218994 C154.51171875 88.53125 154.51171875 88.53125 154.51171875 85.53125 C153.85171875 85.53125 153.19171875 85.53125 152.51171875 85.53125 C152.3430127 86.0979541 152.17430664 86.6646582 152.00048828 87.24853516 C149.83971297 94.48143099 147.62240775 101.69618952 145.38671875 108.90625 C145.19163727 109.53540314 144.99655579 110.16455627 144.79556274 110.81277466 C141.63171646 121.00792253 138.396164 131.17846059 135.11010742 141.33496094 C132.84657831 148.34226395 130.61822697 155.35932804 128.41796875 162.38671875 C127.87931599 164.10424894 127.34066039 165.82177823 126.80200195 167.53930664 C126.00799839 170.07169246 125.21532942 172.604454 124.42709351 175.13864136 C116.7107172 199.94571595 116.7107172 199.94571595 112.32421875 204.90625 C111.81503906 205.51210938 111.30585937 206.11796875 110.78125 206.7421875 C104.52369197 211.67499572 97.97677712 213.14123874 90.1640625 213.0625 C89.30792862 213.0663269 88.45179474 213.07015381 87.56971741 213.07409668 C85.77392387 213.07679883 83.97808982 213.06955759 82.18237305 213.05273438 C79.45206143 213.03127235 76.72437254 213.05260652 73.99414062 213.078125 C72.23827551 213.07548194 70.48241202 213.0703574 68.7265625 213.0625 C67.9211351 213.07059692 67.1157077 213.07869385 66.28587341 213.08703613 C59.16188572 212.97055981 53.00291769 210.54036938 47.82421875 205.53125 C40.29739439 197.22302709 37.8230223 184.63477156 34.58050537 174.10971069 C33.26714276 169.84904622 31.93403007 165.59456489 30.6015625 161.33984375 C30.20200348 160.06241051 30.20200348 160.06241051 29.79437256 158.75917053 C27.58424788 151.71381186 25.25760513 144.71161051 22.88671875 137.71875 C17.55421677 121.92792156 12.58967419 106.02170165 7.59197998 90.12243652 C1.76386439 71.58460315 -4.16272748 53.08291634 -10.24902344 34.62817383 C-10.52284851 33.79462372 -10.79667358 32.96107361 -11.07879639 32.1022644 C-11.57895178 30.58014286 -12.08136 29.05875844 -12.58673096 27.5383606 C-16.96862959 14.18999346 -16.96862959 14.18999346 -16.42578125 8.78125 C-16.37292969 8.06453125 -16.32007813 7.3478125 -16.265625 6.609375 C-13.54146807 -0.67329578 -6.51785239 -0.05400784 0 0 Z " fill="#036F94" transform="translate(1128.48828125,211.46875)"/>
<path d="M0 0 C5.03884442 3.5127944 5.96009466 8.63310349 7.078125 14.37890625 C8.31115521 21.75474999 9.04648041 29.2021038 9.79980469 36.6394043 C10.41442676 42.66312155 11.14317677 48.52244285 12.4375 54.4375 C13.78045943 60.5846545 14.46722067 66.63715826 15.03540039 72.89086914 C15.80854862 81.24102608 16.82845317 89.55575381 17.875 97.875 C17.95885956 98.54651093 18.04271912 99.21802185 18.12911987 99.90988159 C19.37608003 109.88449539 20.71451387 119.84471986 22.22119141 129.78369141 C24.13660159 143.29219721 24.13660159 143.29219721 21.375 148.125 C17.90657045 150.03263625 14.71550522 149.96145268 10.875 149.5 C8.20200307 148.45971382 5.92157538 147.42925049 3.4375 146.0625 C2.76589844 145.70994141 2.09429687 145.35738281 1.40234375 144.99414062 C-0.02841787 144.24048298 -1.45527134 143.47936611 -2.87841797 142.71142578 C-5.22447662 141.44635916 -7.58133747 140.20355913 -9.94140625 138.96484375 C-14.01122375 136.8258117 -18.07043182 134.66778893 -22.125 132.5 C-22.48851562 133.51707031 -22.48851562 133.51707031 -22.859375 134.5546875 C-24.39053678 138.1179467 -26.32003163 141.34798215 -28.375 144.625 C-28.80538574 145.31223145 -29.23577148 145.99946289 -29.67919922 146.70751953 C-37.6338067 159.19086458 -46.65915442 171.12601954 -56.125 182.5 C-56.96289062 183.510625 -57.80078125 184.52125 -58.6640625 185.5625 C-64.14905694 192.1329542 -69.81231236 198.50742699 -75.62890625 204.78515625 C-77.73359486 207.07429332 -79.7856867 209.3922784 -81.8125 211.75 C-87.74146961 218.56831505 -94.27168597 224.63057759 -101.125 230.5 C-102.14386499 231.39380698 -103.16204018 232.28840063 -104.1796875 233.18359375 C-122.04249712 248.81452312 -141.29966093 262.09182921 -162.16210938 273.40185547 C-164.17955597 274.53052149 -166.14302615 275.72618723 -168.109375 276.94140625 C-169.406198 277.71102513 -170.70307111 278.48055957 -172 279.25 C-172.56992676 279.62213623 -173.13985352 279.99427246 -173.72705078 280.37768555 C-176.34757353 281.88860066 -178.46537765 282.59837016 -181.47094727 282.15014648 C-184.08540659 281.39207209 -186.58945814 280.48939666 -189.125 279.5 C-189.88458008 279.2304248 -190.64416016 278.96084961 -191.42675781 278.68310547 C-220.24506856 268.34241749 -247.84624939 252.2559343 -270.20703125 231.2421875 C-272.21049107 229.33550203 -272.21049107 229.33550203 -275.125 227.5 C-275.125 226.84 -275.125 226.18 -275.125 225.5 C-274.01382813 225.24605469 -272.90265625 224.99210938 -271.7578125 224.73046875 C-267.20644383 223.6827159 -262.66421991 222.59908212 -258.125 221.5 C-257.22652344 221.28472656 -256.32804687 221.06945312 -255.40234375 220.84765625 C-230.06277972 214.00999611 -206.45214064 198.49419435 -187.5 180.7265625 C-185.41915667 178.77577188 -183.29676998 176.91025591 -181.125 175.0625 C-173.80643528 168.69069006 -167.03118856 161.70439231 -160.734375 154.328125 C-159.09913566 152.47062012 -157.39018207 150.73393991 -155.625 149 C-137.61451815 131.29523113 -122.10015882 110.09243697 -109.125 88.5 C-108.51785156 87.60667969 -107.91070312 86.71335937 -107.28515625 85.79296875 C-105.95751855 83.6426965 -105.95751855 83.6426965 -106.22924805 81.58666992 C-107.53875691 78.53614601 -109.51005686 77.5791147 -112.296875 75.8203125 C-113.88242187 74.79744141 -113.88242187 74.79744141 -115.5 73.75390625 C-116.61375 73.05136719 -117.7275 72.34882813 -118.875 71.625 C-132.82109407 62.80229495 -132.82109407 62.80229495 -136.125 57.5 C-137.21344762 52.6256476 -136.88306341 48.0490861 -134.6875 43.5625 C-128.88869893 38.89517231 -121.71096005 36.9525306 -114.71875 34.68359375 C-110.39686408 33.26019002 -106.10502316 31.7592242 -101.8125 30.25 C-100.06903578 29.63794857 -98.32554554 29.02597127 -96.58203125 28.4140625 C-95.68693848 28.09985352 -94.7918457 27.78564453 -93.86962891 27.46191406 C-89.2488996 25.84248038 -84.6246351 24.23324013 -80 22.625 C-78.5756665 22.12963745 -78.5756665 22.12963745 -77.12255859 21.62426758 C-68.63072174 18.67270709 -60.13436154 15.73425451 -51.63769531 12.79663086 C-45.68731137 10.73794816 -39.74079604 8.66885012 -33.80004883 6.58251953 C-30.60517993 5.46118019 -27.40809366 4.34624318 -24.2109375 3.23144531 C-22.28360283 2.55561494 -20.36035264 1.86816652 -18.4375 1.1796875 C-17.385625 0.81101562 -16.33375 0.44234375 -15.25 0.0625 C-14.38632812 -0.24558594 -13.52265625 -0.55367188 -12.6328125 -0.87109375 C-8.22328485 -1.97690988 -4.10990931 -2.06327431 0 0 Z " fill="#016E96" transform="translate(466.125,273.5)"/>
<path d="M0 0 C2.10948841 -0.01640749 4.21892487 -0.0434905 6.328125 -0.08203125 C36.29218144 -0.62408985 64.46159378 5.54336737 86.76416016 26.53759766 C104.81035758 45.22738272 108.23240229 68.82014857 108.22192383 93.69287109 C108.22528244 94.86195511 108.22864105 96.03103912 108.23210144 97.23554993 C108.24152119 101.06020193 108.24354946 104.88480981 108.24462891 108.70947266 C108.24703162 110.7085767 108.2494364 112.70768076 108.25208932 114.70678449 C108.26018817 120.97542466 108.26267747 127.2440505 108.26196289 133.51269531 C108.26136069 139.95890782 108.27195144 146.40503705 108.28770655 152.85122848 C108.30080759 158.41163833 108.30614583 163.97202099 108.30550748 169.53244615 C108.30525359 172.84244292 108.30897773 176.15234884 108.31868553 179.46233368 C108.32849555 183.14992711 108.32560408 186.83730536 108.31958008 190.52490234 C108.32519958 191.60872696 108.33081909 192.69255157 108.33660889 193.80921936 C108.30282477 201.95841136 108.05029577 209.18978593 102.07666016 215.35009766 C99.75578669 216.51053439 98.38252309 216.48860382 95.7980957 216.51123047 C94.91345139 216.52083801 94.02880707 216.53044556 93.11735535 216.54034424 C92.15904312 216.54459412 91.2007309 216.54884399 90.21337891 216.55322266 C89.22924515 216.55892273 88.24511139 216.5646228 87.2311554 216.57049561 C85.14556964 216.57995315 83.05996888 216.58648257 80.97436523 216.59033203 C77.7874939 216.60002667 74.60127036 216.63103865 71.41455078 216.66259766 C69.38916399 216.66912874 67.36377258 216.6743788 65.33837891 216.67822266 C64.38613937 216.69056946 63.43389984 216.70291626 62.45280457 216.71563721 C57.53555477 216.69913219 54.01262823 216.65403025 50.07666016 213.35009766 C47.36884347 209.14831314 46.94644331 206.26407024 47.07666016 201.35009766 C46.10728516 201.84638672 45.13791016 202.34267578 44.13916016 202.85400391 C39.80434547 205.05911004 35.44617319 207.21467129 31.07666016 209.35009766 C30.4040918 209.68058105 29.73152344 210.01106445 29.03857422 210.3515625 C12.73108245 218.26081825 -3.31058902 221.09519154 -21.36083984 220.85009766 C-22.16628235 220.84455872 -22.97172485 220.83901978 -23.80157471 220.83331299 C-35.83520158 220.73643828 -47.42336825 220.2153417 -58.92333984 216.35009766 C-59.59929199 216.12515625 -60.27524414 215.90021484 -60.97167969 215.66845703 C-73.89664624 211.21389937 -84.18124188 204.91651844 -93.92333984 195.35009766 C-94.64779297 194.65013672 -95.37224609 193.95017578 -96.11865234 193.22900391 C-106.54158008 182.42958259 -110.877244 167.85757077 -111.36083984 153.10009766 C-110.91731377 135.17425218 -105.11798885 119.52799728 -92.17114258 106.88793945 C-86.33549901 101.51063997 -80.05679668 97.75700546 -72.92333984 94.35009766 C-71.77478516 93.79708984 -70.62623047 93.24408203 -69.44287109 92.67431641 C-47.37480633 82.97591935 -23.9186046 83.72308019 -0.30895996 83.67016602 C6.67202953 83.65011964 13.65285217 83.59366586 20.63365936 83.54140282 C23.06065892 83.5260786 25.48757249 83.51887913 27.91461182 83.51325989 C29.38301642 83.50625276 30.85142059 83.49915258 32.31982422 83.49194336 C33.60439514 83.4884639 34.88896606 83.48498444 36.21246338 83.48139954 C38.97421181 83.67720714 38.97421181 83.67720714 40.07666016 82.35009766 C40.14829718 72.04869369 38.51354975 63.70760202 32.95166016 55.03759766 C21.91223725 44.71813712 8.23819424 45.75337602 -5.91064453 46.17529297 C-16.41128499 46.78456838 -24.1712794 50.34641463 -31.92333984 57.35009766 C-33.59881851 58.7809617 -35.28667231 60.19744646 -36.98583984 61.60009766 C-37.73994141 62.24462891 -38.49404297 62.88916016 -39.27099609 63.55322266 C-45.38811086 67.69736521 -51.19675721 68.80844943 -58.40380859 68.74853516 C-59.5676281 68.75284042 -59.5676281 68.75284042 -60.75495911 68.75723267 C-62.38099913 68.75925914 -64.00706432 68.75382932 -65.63305664 68.74121094 C-68.1151367 68.72506971 -70.59560501 68.74114062 -73.07763672 68.76025391 C-74.66553091 68.7582725 -76.25342411 68.75443096 -77.84130859 68.74853516 C-78.94613838 68.7576442 -78.94613838 68.7576442 -80.07328796 68.76693726 C-85.87168215 68.68799034 -88.92656221 67.12501111 -93.17333984 63.35009766 C-96.14416591 59.95486787 -96.26532266 56.5457052 -96.20068359 52.14306641 C-95.24741961 42.54329529 -92.10530634 33.75731878 -85.92333984 26.35009766 C-85.30974609 25.60244141 -84.69615234 24.85478516 -84.06396484 24.08447266 C-63.88355698 1.77981133 -27.89541476 0.15784223 0 0 Z M-38.39990234 136.80322266 C-43.85486829 143.11949902 -44.3768785 147.70437418 -44.23193359 155.93212891 C-43.67970794 162.04855227 -41.1504657 165.36114764 -36.79833984 169.60009766 C-29.44754983 175.34108406 -20.44249201 175.90877789 -11.42333984 175.85009766 C-10.37597656 175.84365234 -9.32861328 175.83720703 -8.24951172 175.83056641 C9.37616676 175.42191736 25.39770133 168.95518347 40.07666016 159.35009766 C41.45343496 156.59654806 41.20635704 154.36169356 41.20947266 151.28369141 C41.21076172 150.07648438 41.21205078 148.86927734 41.21337891 147.62548828 C41.20951172 146.35898437 41.20564453 145.09248047 41.20166016 143.78759766 C41.20552734 142.51722656 41.20939453 141.24685547 41.21337891 139.93798828 C41.21208984 138.73207031 41.21080078 137.52615234 41.20947266 136.28369141 C41.20778076 134.61391235 41.20778076 134.61391235 41.20605469 132.91040039 C41.3668829 130.4168155 41.3668829 130.4168155 40.07666016 129.35009766 C38.18626434 129.24565504 36.29194854 129.21154678 34.39868164 129.20483398 C32.57559731 129.19526421 32.57559731 129.19526421 30.71568298 129.1855011 C29.37637369 129.18397151 28.03706387 129.18285804 26.69775391 129.18212891 C25.32829249 129.17891595 23.95883142 129.17555185 22.58937073 129.17204285 C19.71004442 129.16604136 16.83074814 129.16420372 13.95141602 129.16479492 C10.27862591 129.16489599 6.60603155 129.15130598 2.93328762 129.13402271 C0.09952428 129.12284307 -2.73419287 129.12087762 -5.567976 129.12140465 C-7.57524424 129.11966318 -9.58249806 129.10884991 -11.58973694 129.09785461 C-21.31618129 129.12203705 -31.07410797 129.59371073 -38.39990234 136.80322266 Z " fill="#046F93" transform="translate(985.92333984375,207.64990234375)"/>
<path d="M0 0 C0.9213826 -0.01283524 1.8427652 -0.02567047 2.79206848 -0.03889465 C4.28271065 -0.04997505 4.28271065 -0.04997505 5.8034668 -0.0612793 C6.82820602 -0.06935104 7.85294525 -0.07742279 8.90873718 -0.08573914 C11.0783011 -0.09957247 13.24788671 -0.11029798 15.41748047 -0.11816406 C18.72950613 -0.13537758 22.04053374 -0.17927129 25.35229492 -0.22338867 C27.46101155 -0.2335158 29.56973665 -0.24203184 31.6784668 -0.2487793 C33.15999992 -0.27504143 33.15999992 -0.27504143 34.67146301 -0.30183411 C41.46400328 -0.28048559 45.03377846 0.87707882 50.02952576 5.71665955 C53.90734715 9.84821471 55.80324257 13.83234092 57.36987305 19.22387695 C57.60586212 19.98359802 57.8418512 20.74331909 58.08499146 21.52606201 C58.84521147 23.988248 59.58035251 26.45713322 60.31518555 28.92700195 C60.84367496 30.65596407 61.37363848 32.38447624 61.9050293 34.11254883 C63.44084201 39.12692976 64.94559316 44.1502012 66.44018555 49.17700195 C66.81433594 50.43319336 67.18848633 51.68938477 67.57397461 52.98364258 C68.84250158 57.25670606 70.10325456 61.53202583 71.36157227 65.80810547 C74.07540519 75.00637327 76.8325879 84.19086947 79.66674805 93.3527832 C80.17172911 94.99269645 80.67194847 96.6340857 81.16674805 98.27709961 C86.43639826 115.74729301 93.12403475 134.06588655 108.44018555 145.17700195 C111.73010055 146.72519725 113.59150545 147.23486651 117.19018555 146.98950195 C119.78422845 146.30464051 119.78422845 146.30464051 121.44018555 143.17700195 C122.16848532 140.76802449 122.82486561 138.38109276 123.4362793 135.94262695 C123.62515213 135.2106459 123.81402496 134.47866486 124.00862122 133.72450256 C124.41930703 132.13255025 124.82767448 130.53999849 125.23400879 128.94692993 C126.3439061 124.60179669 127.47528092 120.26228671 128.6081543 115.9230957 C128.84261261 115.02467453 129.07707092 114.12625336 129.31863403 113.2006073 C131.86722 103.47830664 134.60078676 93.81088422 137.35888672 84.14633179 C140.34777181 73.67027877 143.26660541 63.17845762 146.1081543 52.66137695 C146.73995348 50.33023092 147.37178938 47.99909485 148.00366211 45.66796875 C148.93559669 42.22849833 149.86462813 38.78838198 150.78430176 35.34561157 C151.64000144 32.14281366 152.50599687 28.94295 153.3737793 25.7434082 C153.74976509 24.31777557 153.74976509 24.31777557 154.13334656 22.86334229 C156.03952847 15.8888885 158.12928686 8.3548593 164.06518555 3.73950195 C164.65557617 3.26641602 165.2459668 2.79333008 165.85424805 2.3059082 C168.67859574 0.29547351 170.48016886 0.0445248 173.90234375 0.01586914 C174.82702957 0.0062616 175.75171539 -0.00334595 176.704422 -0.01324463 C177.70648178 -0.01749451 178.70854156 -0.02174438 179.7409668 -0.02612305 C181.28375557 -0.03467316 181.28375557 -0.03467316 182.85771179 -0.043396 C185.03745492 -0.05285424 187.2172124 -0.05938324 189.39697266 -0.06323242 C192.72868906 -0.07292821 196.05978615 -0.1039402 199.39135742 -0.13549805 C201.50789021 -0.14202898 203.62442742 -0.1472791 205.7409668 -0.15112305 C207.23494743 -0.16964325 207.23494743 -0.16964325 208.7591095 -0.1885376 C217.66565342 -0.15992374 217.66565342 -0.15992374 221.44018555 3.17700195 C223.76731952 6.6147548 223.55745912 9.31478606 222.98413086 13.39086914 C221.94646243 18.70589251 220.44364406 23.89513952 218.94894409 29.0958252 C217.8150326 33.04308427 216.70585984 36.99733637 215.5925293 40.95043945 C215.22427788 42.25434631 215.22427788 42.25434631 214.84858704 43.58459473 C211.77824828 54.47897329 208.82234542 65.40456336 205.85552979 76.32748413 C201.09907296 93.83635766 196.310689 111.33395872 191.36303711 128.78979492 C189.22018784 136.36099219 187.14958598 143.94770141 185.12768555 151.55200195 C182.23047663 162.39454724 179.22432858 173.20574016 176.16812134 184.00445557 C175.64995183 185.83838473 175.13406135 187.67295969 174.62069702 189.50823975 C167.80940568 213.83151992 159.61724728 241.08053371 142.44018555 260.17700195 C141.82143555 260.90274414 141.20268555 261.62848633 140.56518555 262.3762207 C128.65014569 275.40829554 111.92544143 281.37714807 94.6862793 282.3996582 C83.55118476 282.73064873 72.46268655 281.73450337 61.37768555 280.80200195 C60.61583954 280.73896881 59.85399353 280.67593567 59.06906128 280.61099243 C34.20700479 278.52161747 34.20700479 278.52161747 29.44018555 273.17700195 C26.07140218 267.0377836 25.98551649 261.59050584 26.06518555 254.67700195 C26.05358398 253.67024414 26.04198242 252.66348633 26.0300293 251.6262207 C26.05635073 244.93180203 26.63103892 239.68843524 30.94018555 234.30200195 C34.4957729 231.63531144 38.52437052 231.98551392 42.75268555 231.98950195 C43.46183105 231.98885742 44.17097656 231.98821289 44.90161133 231.98754883 C50.78648254 232.0452565 56.44795816 232.80393551 62.26049805 233.7199707 C71.28830349 235.0175791 79.89344485 234.69332176 87.7878418 229.6887207 C96.82199932 222.4520971 102.54134806 211.22881987 105.44018555 200.17700195 C105.44018555 199.18700195 105.44018555 198.19700195 105.44018555 197.17700195 C104.2078418 197.0068457 102.97549805 196.83668945 101.70581055 196.66137695 C77.98141754 193.25090539 59.74004935 185.36036644 44.5847168 166.09106445 C23.26196117 137.11697393 14.84858885 101.04476065 4.7868042 67.08291626 C2.89830757 60.71045569 0.99388929 54.34290536 -0.91918945 47.9777832 C-1.19421295 47.06264954 -1.46923645 46.14751587 -1.75259399 45.20465088 C-2.29750173 43.39184651 -2.84247351 41.57906139 -3.38751221 39.76629639 C-4.64640783 35.57926138 -5.90455578 31.39200387 -7.16137695 27.2043457 C-7.37542175 26.49256668 -7.58946655 25.78078766 -7.80999756 25.04743958 C-8.39676441 23.09167206 -8.97840366 21.13436839 -9.55981445 19.17700195 C-9.85190041 18.20130753 -9.85190041 18.20130753 -10.14988708 17.2059021 C-11.6243451 12.1951054 -11.66053664 9.25725821 -10.55981445 4.17700195 C-7.86098531 0.37410634 -4.42530785 0.05376961 0 0 Z " fill="#036F94" transform="translate(1660.559814453125,211.822998046875)"/>
<path d="M0 0 C5.39834237 6.14811214 4.58311737 12.12003948 4.5625 20 C4.57861328 21.22783203 4.59472656 22.45566406 4.61132812 23.72070312 C4.61197266 24.90470703 4.61261719 26.08871094 4.61328125 27.30859375 C4.61626221 28.38810303 4.61924316 29.4676123 4.62231445 30.57983398 C4.0486755 35.1753403 1.78819419 38.61400484 -1.75 41.5625 C-5.70610237 42.88120079 -9.50062305 42.75319967 -13.625 42.75 C-14.91374023 42.7509668 -14.91374023 42.7509668 -16.22851562 42.75195312 C-21.00596908 42.71258834 -25.53699959 42.42106984 -30.25 41.5625 C-46.65020029 38.68054319 -71.18533672 38.46656086 -85.75 47.5625 C-93.25806841 53.12110504 -96.72402421 59.72647191 -98.10058594 68.8984375 C-99.15437033 77.12858738 -99.76861357 85.2652353 -99.75 93.5625 C-98.53969872 93.57129936 -98.53969872 93.57129936 -97.3049469 93.58027649 C-89.66986756 93.6383812 -82.03510796 93.71055832 -74.40031528 93.79821491 C-70.47596384 93.84278364 -66.55171299 93.88206865 -62.62719727 93.90893555 C-58.83388972 93.93510435 -55.04097209 93.97560031 -51.24790764 94.02568626 C-49.80682189 94.04226385 -48.36566884 94.05383449 -46.92450142 94.06011391 C-31.03414048 94.13630197 -31.03414048 94.13630197 -24.75 97.5625 C-19.20246075 103.80348166 -19.5687217 111.02349683 -19.5625 118.9375 C-19.55025391 119.74960937 -19.53800781 120.56171875 -19.52539062 121.3984375 C-19.50940285 128.04935174 -19.79037631 134.20090223 -24.1875 139.5 C-28.25550285 142.77424619 -31.4371847 142.70399065 -36.51635742 142.76782227 C-37.19954544 142.77772186 -37.88273346 142.78762146 -38.58662415 142.79782104 C-40.84287053 142.82938679 -43.09913797 142.8541739 -45.35546875 142.87890625 C-46.92060389 142.89948004 -48.48573352 142.92047662 -50.05085754 142.94187927 C-54.16897116 142.99705609 -58.28713456 143.04648471 -62.40533447 143.09472656 C-66.60815864 143.14497365 -70.81091058 143.20064297 -75.01367188 143.25585938 C-83.2590535 143.36338726 -91.50449558 143.46484413 -99.75 143.5625 C-99.75238835 144.18572458 -99.75477671 144.80894917 -99.75723743 145.45105934 C-99.8164079 160.62485889 -99.89197095 175.798481 -99.98571491 190.97210121 C-100.03065497 198.30999947 -100.0700737 205.64784939 -100.09643555 212.98583984 C-100.1194302 219.38263431 -100.15284448 225.77927557 -100.19870156 232.1759485 C-100.22261421 235.56206105 -100.24135572 238.94802205 -100.24761391 242.33421707 C-100.25722589 246.11708422 -100.28525217 249.89939765 -100.31762695 253.68212891 C-100.31547432 255.36095657 -100.31547432 255.36095657 -100.3132782 257.07369995 C-100.38063086 262.63232356 -100.54232171 266.79760589 -103.75 271.5625 C-108.26807082 275.75056196 -114.11866516 275.04785811 -119.9296875 275.06640625 C-121.55887619 275.08138405 -121.55887619 275.08138405 -123.22097778 275.09666443 C-125.51560666 275.11183289 -127.81030151 275.11889062 -130.10498047 275.1184082 C-133.60625817 275.1249649 -137.10469313 275.17945099 -140.60546875 275.23632812 C-142.838532 275.2451317 -145.07160868 275.25108491 -147.3046875 275.25390625 C-148.34656219 275.2754628 -149.38843689 275.29701935 -150.46188354 275.31922913 C-156.59108259 275.26175907 -160.05890177 274.44979681 -164.52346802 270.1436615 C-167.3021234 266.56160822 -166.89064873 262.57014638 -166.87698364 258.27262878 C-166.87854363 257.52448624 -166.88010362 256.7763437 -166.88171089 256.00553018 C-166.88570907 253.49089024 -166.88253564 250.97631035 -166.87939453 248.46166992 C-166.88074922 246.66130539 -166.88252954 244.86094113 -166.88470459 243.06057739 C-166.88927444 238.16120406 -166.88749024 233.26185173 -166.8843255 228.36247802 C-166.88179533 223.22938845 -166.88414168 218.0963007 -166.88571167 212.96321106 C-166.88753324 204.33036985 -166.88512926 195.69753718 -166.88037109 187.06469727 C-166.87494743 177.11005373 -166.87667733 167.15543074 -166.8821975 157.20078772 C-166.88675165 148.64346492 -166.88736737 140.08614826 -166.88475883 131.52882463 C-166.88320625 126.42330325 -166.88297382 121.31779148 -166.88629532 116.21227074 C-166.88920685 111.399969 -166.88713864 106.58769338 -166.88140106 101.77539444 C-166.88009012 100.01874777 -166.88043888 98.26209886 -166.88266373 96.50545311 C-166.89859275 82.63804936 -166.7331585 69.00268164 -163.5 55.4375 C-163.27820068 54.49100586 -163.05640137 53.54451172 -162.82788086 52.56933594 C-161.12563494 45.56794015 -159.0459299 38.99455715 -155.75 32.5625 C-155.34523438 31.73234375 -154.94046875 30.9021875 -154.5234375 30.046875 C-146.39964041 14.93946287 -131.88053267 4.73355319 -115.828125 -0.5703125 C-88.39033854 -8.30024726 -24.35819265 -18.81699242 0 0 Z " fill="#046F93" transform="translate(879.75,149.4375)"/>
<path d="M0 0 C1.02480469 -0.01015137 2.04960938 -0.02030273 3.10546875 -0.03076172 C12.02595127 0.07507957 12.02595127 0.07507957 16.0625 3.4375 C19.96744818 7.90029791 20.23008794 11.98031101 20.265625 17.703125 C20.27132507 18.41474792 20.27702515 19.12637085 20.28289795 19.85955811 C20.29233765 21.36582966 20.29887785 22.87212177 20.30273438 24.37841797 C20.31240659 26.66541376 20.34342413 28.95149755 20.375 31.23828125 C20.38153408 32.70572386 20.38678296 34.17317287 20.390625 35.640625 C20.4029718 36.31691956 20.4153186 36.99321411 20.42803955 37.69000244 C20.40486495 42.71298024 19.3101174 46.04237263 17.0625 50.4375 C12.4265707 54.9238832 7.20749696 54.59761048 1.0625 54.5625 C0.27649414 54.5627417 -0.50951172 54.5629834 -1.31933594 54.56323242 C-6.44637051 54.53746589 -11.52507044 54.28709937 -16.63818359 53.92333984 C-33.87141594 52.75157247 -49.10511532 56.31893603 -62.4375 67.875 C-70.43135585 75.63219564 -74.93993595 82.21624219 -75.16455078 93.62889099 C-75.1642562 95.61126478 -75.15301715 97.59365689 -75.1328125 99.57592773 C-75.12989197 100.66479279 -75.12697144 101.75365784 -75.1239624 102.8755188 C-75.116379 105.2288286 -75.10417623 107.58212714 -75.08782959 109.93539238 C-75.06220186 113.66447611 -75.04924543 117.39341677 -75.03955078 121.12257385 C-75.01480332 129.7118036 -74.97145093 138.30091588 -74.92709351 146.89006042 C-74.88340044 155.39287225 -74.84771638 163.89564693 -74.82562256 172.39854622 C-74.81270154 176.06392204 -74.78768639 179.72908706 -74.76220703 183.39439392 C-74.75493828 185.65282002 -74.74823528 187.91124804 -74.7421875 190.16967773 C-74.73185486 191.18138535 -74.72152222 192.19309296 -74.71087646 193.23545837 C-74.70981928 200.37086931 -74.9204985 207.31440091 -78.875 213.4375 C-81.9686428 216.43739605 -84.62845501 216.57006701 -88.75683594 216.64624023 C-89.7350531 216.66553085 -90.71327026 216.68482147 -91.72113037 216.70469666 C-96.19458204 216.76255441 -100.66787536 216.81171251 -105.14160156 216.8425293 C-107.49852141 216.86411222 -109.85536106 216.89821807 -112.21191406 216.94506836 C-115.61559737 217.01210193 -119.01762449 217.03953484 -122.421875 217.05859375 C-123.4700238 217.08642441 -124.51817261 217.11425507 -125.5980835 217.14292908 C-131.7547676 217.12568916 -135.23117639 216.35479661 -139.71343994 212.02113342 C-142.55774001 208.34130692 -142.0830874 204.15579757 -142.07794189 199.74539185 C-142.08091302 198.95414724 -142.08388414 198.16290264 -142.0869453 197.34768093 C-142.09563961 194.68766859 -142.09714115 192.02770122 -142.09863281 189.36767578 C-142.10326042 187.46403914 -142.108285 185.56040343 -142.11367798 183.6567688 C-142.1268084 178.47909026 -142.13324804 173.30142468 -142.13768864 168.12373209 C-142.14061797 164.89057013 -142.14472249 161.65741173 -142.14919281 158.42425156 C-142.16286865 148.3131061 -142.17253522 138.20196877 -142.1763947 128.09081471 C-142.18087758 116.41001909 -142.1984358 104.72934036 -142.2273953 93.04858029 C-142.24899193 84.02515933 -142.25909788 75.00177131 -142.26043582 65.97832477 C-142.26148518 60.58632535 -142.26742095 55.1944358 -142.28525543 49.80246353 C-142.3017015 44.73159654 -142.30390849 39.66092242 -142.29511642 34.5900383 C-142.29434422 32.72801447 -142.29871278 30.86598042 -142.30857468 29.00398254 C-142.3212414 26.46361558 -142.31544636 23.92393722 -142.30499268 21.38357544 C-142.31304908 20.64534204 -142.32110548 19.90710863 -142.32940602 19.14650452 C-142.27748417 13.75813407 -140.88655786 10.71140084 -137.4375 6.6875 C-134.59225528 4.31646273 -131.7318866 4.30167806 -128.1940918 4.26049805 C-127.23266769 4.24766281 -126.27124359 4.23482758 -125.28068542 4.22160339 C-123.72442192 4.21052299 -123.72442192 4.21052299 -122.13671875 4.19921875 C-121.06758743 4.191147 -119.99845612 4.18307526 -118.89692688 4.17475891 C-116.63320536 4.16092409 -114.36946303 4.15019924 -112.10571289 4.14233398 C-108.64884826 4.12511876 -105.19293939 4.08122584 -101.73632812 4.03710938 C-99.53646536 4.02698247 -97.33659447 4.01846636 -95.13671875 4.01171875 C-94.10528244 3.99421066 -93.07384613 3.97670258 -92.01115417 3.95866394 C-85.99420526 3.97679489 -82.5205867 4.42336763 -77.9375 8.4375 C-75.52686477 11.736264 -75.55263595 15.18523413 -75.3125 19.1875 C-75.20035156 20.94320312 -75.20035156 20.94320312 -75.0859375 22.734375 C-75.03695313 23.62640625 -74.98796875 24.5184375 -74.9375 25.4375 C-74.23367188 25.025 -73.52984375 24.6125 -72.8046875 24.1875 C-70.69784299 22.95529851 -68.58820478 21.72786753 -66.4765625 20.50390625 C-64.16302967 19.16062642 -61.87324697 17.79125777 -59.5859375 16.40234375 C-41.09760055 5.37309447 -21.55466126 0.15330949 0 0 Z " fill="#046F93" transform="translate(1619.9375,207.5625)"/>
<path d="M0 0 C29.63904931 5.25890797 60.73814571 28.37293863 82.3671875 48.578125 C84.77075249 50.90274319 84.77075249 50.90274319 86.75814819 52.210495 C89.51500566 54.20306233 91.626963 55.78666174 92.64974976 59.1133728 C92.89325767 61.64344949 92.91755801 64.08770248 92.859375 66.62890625 C92.86332275 67.5634111 92.86727051 68.49791595 92.87133789 69.46073914 C92.87008276 72.49635589 92.81334412 75.52758917 92.75 78.5625 C92.73924438 79.59588501 92.72848877 80.62927002 92.71740723 81.69396973 C92.53740235 98.94432592 90.8487696 115.16233739 87 132 C86.62311696 133.81157227 86.25046181 135.62403126 85.8828125 137.4375 C84.52061021 144.00223761 82.93925563 150.37768402 80.76757812 156.72753906 C80.03130509 158.9073194 79.34432853 161.09548732 78.67578125 163.296875 C75.98485046 172.12076235 73.07795627 180.84789731 69.875 189.5 C69.55055908 190.40202148 69.22611816 191.30404297 68.8918457 192.23339844 C68.5743335 193.07418945 68.25682129 193.91498047 67.9296875 194.78125 C67.65366699 195.52439453 67.37764648 196.26753906 67.09326172 197.03320312 C65.74016581 199.46744624 64.37781784 200.5705476 62 202 C58.4375 202.4375 58.4375 202.4375 55 202 C51.47164652 198.66190088 50.93981161 194.26885898 50.0625 189.6875 C49.8984668 188.86950928 49.73443359 188.05151855 49.56542969 187.20874023 C48.21006372 180.34253853 46.96898517 173.45405534 45.75 166.5625 C45.4871521 165.07979614 45.4871521 165.07979614 45.21899414 163.56713867 C44.97910767 162.17458862 44.97910767 162.17458862 44.734375 160.75390625 C44.59225586 159.93220947 44.45013672 159.1105127 44.30371094 158.26391602 C44 156 44 156 44 152 C43.27748047 152.235979 42.55496094 152.47195801 41.81054688 152.71508789 C27.78198357 157.28677778 13.75080149 161.76172968 -0.4453125 165.79125977 C-1.36957031 166.05479248 -2.29382813 166.3183252 -3.24609375 166.58984375 C-4.04716553 166.81534912 -4.8482373 167.04085449 -5.67358398 167.27319336 C-8.07132563 167.98665849 -8.07132563 167.98665849 -10.60571289 169.06079102 C-13.67396281 170.26437595 -15.73341531 170.48651261 -19 170 C-22.0214531 167.37610652 -22.89144075 165.70563514 -23.5 161.75 C-22.73361342 156.00210069 -20.20594462 151.42579061 -17.64453125 146.2734375 C-13.21813508 137.08836877 -10.06365179 127.63579505 -6.95532227 117.93994141 C-5.84858389 114.53402688 -4.7003129 111.14302557 -3.5546875 107.75 C6.54792908 77.48991677 12.34671629 45.37875168 4.0625 13.8125 C3.89298828 13.14025391 3.72347656 12.46800781 3.54882812 11.77539062 C2.52784189 7.78849761 1.34833637 3.88780397 0 0 Z " fill="#026F96" transform="translate(447,80)"/>
<path d="M0 0 C0.66 0.33 1.32 0.66 2 1 C-7.24 10.24 -16.48 19.48 -26 29 C-26.66 28.67 -27.32 28.34 -28 28 C-27.57589844 27.5875 -27.15179688 27.175 -26.71484375 26.75 C-23.64447131 23.72686406 -20.6979401 20.68471134 -17.9375 17.375 C-12.51526889 11.05322824 -6.15044941 5.59597061 0 0 Z " fill="#FFF6D4" transform="translate(198,125)"/>
<path d="M0 0 C0.33 0 0.66 0 1 0 C1.04898437 0.92683594 1.09796875 1.85367188 1.1484375 2.80859375 C1.22320313 4.00613281 1.29796875 5.20367187 1.375 6.4375 C1.44460938 7.63246094 1.51421875 8.82742187 1.5859375 10.05859375 C1.72257812 11.02925781 1.85921875 11.99992188 2 13 C2.66 13.33 3.32 13.66 4 14 C2.02 14.99 2.02 14.99 0 16 C0 10.72 0 5.44 0 0 Z " fill="#749B62" transform="translate(1543,220)"/>
<path d="M0 0 C0.66 0.33 1.32 0.66 2 1 C1.51789063 1.47050781 1.03578125 1.94101562 0.5390625 2.42578125 C-0.40839844 3.35970703 -0.40839844 3.35970703 -1.375 4.3125 C-2.00148438 4.92738281 -2.62796875 5.54226563 -3.2734375 6.17578125 C-5.18086607 8.08812528 -5.18086607 8.08812528 -7 11 C-6.58485103 6.1565954 -4.53791301 4.18412171 -1 1 C-0.67 0.67 -0.34 0.34 0 0 Z " fill="#3B8FAE" transform="translate(337,313)"/>
<path d="M0 0 C0.66 0.33 1.32 0.66 2 1 C-0.97 3.97 -3.94 6.94 -7 10 C-7 7 -7 7 -4.625 4.4375 C-3.75875 3.633125 -2.8925 2.82875 -2 2 C-1.34 1.34 -0.68 0.68 0 0 Z " fill="#267C85" transform="translate(1392,215)"/>
</svg>
