<svg width="40" height="40" viewBox="0 0 40 40" fill="none" xmlns="http://www.w3.org/2000/svg">
<path d="M17.53 14.9967L16.6667 12.8833L15.8 14.9967H17.53ZM9.58333 5C8.36776 5 7.20197 5.48289 6.34243 6.34243C5.48289 7.20197 5 8.36776 5 9.58333V30.4167C5 31.6322 5.48289 32.798 6.34243 33.6576C7.20197 34.5171 8.36776 35 9.58333 35H20.0367C18.9214 33.2591 18.3301 31.2342 18.3333 29.1667C18.3333 27.69 18.6283 26.2833 19.1633 25H9.58333C9.25181 25 8.93387 24.8683 8.69945 24.6339C8.46503 24.3995 8.33333 24.0815 8.33333 23.75C8.33333 23.4185 8.46503 23.1005 8.69945 22.8661C8.93387 22.6317 9.25181 22.5 9.58333 22.5H20.6267C21.6391 21.2012 22.9346 20.1508 24.4146 19.4287C25.8946 18.7066 27.5199 18.332 29.1667 18.3333C31.2342 18.3301 33.2591 18.9214 35 20.0367V9.58333C35 8.36776 34.5171 7.20197 33.6576 6.34243C32.798 5.48289 31.6322 5 30.4167 5H9.58333ZM15.4167 30.8333H9.58333C9.25181 30.8333 8.93387 30.7016 8.69945 30.4672C8.46503 30.2328 8.33333 29.9149 8.33333 29.5833C8.33333 29.2518 8.46503 28.9339 8.69945 28.6994C8.93387 28.465 9.25181 28.3333 9.58333 28.3333H15.4167C15.7482 28.3333 16.0661 28.465 16.3005 28.6994C16.535 28.9339 16.6667 29.2518 16.6667 29.5833C16.6667 29.9149 16.535 30.2328 16.3005 30.4672C16.0661 30.7016 15.7482 30.8333 15.4167 30.8333ZM17.8233 9.10667L21.57 18.2767C21.6955 18.5837 21.694 18.9279 21.5657 19.2338C21.4374 19.5396 21.1928 19.782 20.8858 19.9075C20.5788 20.033 20.2346 20.0315 19.9287 19.9032C19.6229 19.7749 19.3805 19.5303 19.255 19.2233L18.55 17.4967H14.78L14.0733 19.2233C13.9435 19.5239 13.701 19.7615 13.3979 19.8851C13.0948 20.0088 12.7553 20.0086 12.4523 19.8846C12.1494 19.7607 11.9071 19.5228 11.7777 19.2221C11.6482 18.9214 11.6419 18.582 11.76 18.2767L15.51 9.10667C15.604 8.87715 15.7642 8.6808 15.9702 8.5426C16.1762 8.4044 16.4186 8.33061 16.6667 8.33061C16.9147 8.33061 17.1571 8.4044 17.3631 8.5426C17.5691 8.6808 17.7293 8.87715 17.8233 9.10667ZM27.5 9.57833V11.6617H29.5833C29.9149 11.6617 30.2328 11.7934 30.4672 12.0278C30.7016 12.2622 30.8333 12.5801 30.8333 12.9117C30.8333 13.2432 30.7016 13.5611 30.4672 13.7956C30.2328 14.03 29.9149 14.1617 29.5833 14.1617H27.5V16.245C27.5 16.5765 27.3683 16.8945 27.1339 17.1289C26.8995 17.3633 26.5815 17.495 26.25 17.495C25.9185 17.495 25.6005 17.3633 25.3661 17.1289C25.1317 16.8945 25 16.5765 25 16.245V14.1617H22.9167C22.5851 14.1617 22.2672 14.03 22.0328 13.7956C21.7984 13.5611 21.6667 13.2432 21.6667 12.9117C21.6667 12.5801 21.7984 12.2622 22.0328 12.0278C22.2672 11.7934 22.5851 11.6617 22.9167 11.6617H25V9.57833C25 9.24681 25.1317 8.92887 25.3661 8.69445C25.6005 8.46003 25.9185 8.32833 26.25 8.32833C26.5815 8.32833 26.8995 8.46003 27.1339 8.69445C27.3683 8.92887 27.5 9.24681 27.5 9.57833ZM38.3333 29.1667C38.3333 26.7355 37.3676 24.4039 35.6485 22.6849C33.9294 20.9658 31.5978 20 29.1667 20C26.7355 20 24.4039 20.9658 22.6849 22.6849C20.9658 24.4039 20 26.7355 20 29.1667C20 31.5978 20.9658 33.9294 22.6849 35.6485C24.4039 37.3676 26.7355 38.3333 29.1667 38.3333C31.5978 38.3333 33.9294 37.3676 35.6485 35.6485C37.3676 33.9294 38.3333 31.5978 38.3333 29.1667ZM30 30L30.0017 34.1717C30.0017 34.3927 29.9139 34.6046 29.7576 34.7609C29.6013 34.9172 29.3893 35.005 29.1683 35.005C28.9473 35.005 28.7354 34.9172 28.5791 34.7609C28.4228 34.6046 28.335 34.3927 28.335 34.1717V30H24.16C23.939 30 23.727 29.9122 23.5707 29.7559C23.4145 29.5996 23.3267 29.3877 23.3267 29.1667C23.3267 28.9457 23.4145 28.7337 23.5707 28.5774C23.727 28.4211 23.939 28.3333 24.16 28.3333H28.3333V24.1667C28.3333 23.9457 28.4211 23.7337 28.5774 23.5774C28.7337 23.4211 28.9457 23.3333 29.1667 23.3333C29.3877 23.3333 29.5996 23.4211 29.7559 23.5774C29.9122 23.7337 30 23.9457 30 24.1667V28.3333H34.1717C34.3927 28.3333 34.6046 28.4211 34.7609 28.5774C34.9172 28.7337 35.005 28.9457 35.005 29.1667C35.005 29.3877 34.9172 29.5996 34.7609 29.7559C34.6046 29.9122 34.3927 30 34.1717 30H30Z" fill="#798AB8"/>
</svg>
