<?xml version="1.0" encoding="UTF-8"?>
<svg version="1.1" xmlns="http://www.w3.org/2000/svg" width="850" height="567">
<path d="M0 0 C0.74048584 -0.00067474 1.48097168 -0.00134949 2.24389648 -0.00204468 C13.46571916 0.01421135 24.27320935 0.46029574 35.1875 3.25 C36.33968018 3.53931396 36.33968018 3.53931396 37.51513672 3.83447266 C51.7926187 7.50977844 51.7926187 7.50977844 55.1875 11.25 C54.55473145 11.28963867 53.92196289 11.32927734 53.27001953 11.37011719 C39.59295056 12.26559539 26.42612688 13.62194157 13.1875 17.25 C12.12789062 17.53617188 11.06828125 17.82234375 9.9765625 18.1171875 C1.22742069 20.7677318 -6.76680199 24.98106692 -14.8125 29.25 C-15.86695313 29.79527344 -16.92140625 30.34054688 -18.0078125 30.90234375 C-26.58089705 35.57753253 -33.65459986 41.68461252 -40.8125 48.25 C-41.72257812 49.07628906 -42.63265625 49.90257812 -43.5703125 50.75390625 C-54.88438331 61.5182338 -62.34277352 74.17918781 -68.8125 88.25 C-69.29589844 89.25546875 -69.77929688 90.2609375 -70.27734375 91.296875 C-81.00077371 114.89493971 -81.38182548 142.94364199 -72.8125 167.25 C-71.68279934 170.00513759 -70.41691434 172.6614331 -69.0625 175.3125 C-68.71832031 175.99715332 -68.37414062 176.68180664 -68.01953125 177.38720703 C-65.51220144 182.23540016 -62.64288455 186.50861786 -59.0625 190.6484375 C-57.8125 192.25 -57.8125 192.25 -57.8125 194.25 C-57.1525 194.25 -56.4925 194.25 -55.8125 194.25 C-54.61979711 195.40862566 -53.43235855 196.57320912 -52.2734375 197.765625 C-39.44980213 210.79498714 -21.64053349 218.30855247 -3.36743164 218.63061523 C18.55571194 218.58358303 36.69293256 212.23977617 52.64355469 196.81738281 C66.96616734 182.27734909 73.27515405 163.95986457 73.625 143.875 C73.45268149 125.34756932 67.62190755 106.76348773 54.4609375 93.35546875 C44.347738 83.9894644 33.14485055 78.70099828 20.1875 74.25 C18.62291933 73.67227053 17.06017574 73.08952159 15.5 72.5 C14.406875 72.0875 13.31375 71.675 12.1875 71.25 C11.50607485 55.14817606 16.14225381 42.47113206 25.890625 29.578125 C26.31859375 29.13984375 26.7465625 28.7015625 27.1875 28.25 C27.8475 28.25 28.5075 28.25 29.1875 28.25 C29.37957031 27.68410156 29.57164062 27.11820313 29.76953125 26.53515625 C31.78762968 23.28284886 34.68748882 21.65440336 37.875 19.6875 C38.47505859 19.30142578 39.07511719 18.91535156 39.69335938 18.51757812 C45.9458082 14.57537892 52.59234897 10.8981509 60.1875 11.25 C62.96266868 12.04401247 65.35872501 13.28866114 67.875 14.6875 C68.55908936 15.04787354 69.24317871 15.40824707 69.94799805 15.77954102 C75.65496742 18.83176765 81.16671377 22.19150343 86.61328125 25.68359375 C89.16129052 27.365154 89.16129052 27.365154 92.1875 28.25 C92.72375 28.95125 93.26 29.6525 93.8125 30.375 C96.62671587 33.78168237 99.80055496 36.11046417 103.359375 38.69921875 C103.96265625 39.21097656 104.5659375 39.72273438 105.1875 40.25 C105.1875 40.91 105.1875 41.57 105.1875 42.25 C105.8475 42.25 106.5075 42.25 107.1875 42.25 C107.1875 42.91 107.1875 43.57 107.1875 44.25 C108.1775 44.58 109.1675 44.91 110.1875 45.25 C112.80547311 47.65455139 114.96259048 50.48510332 117.1875 53.25 C117.59033203 53.74773926 117.99316406 54.24547852 118.40820312 54.75830078 C142.44492636 84.84045932 153.5482236 122.24741479 149.5 160.5 C145.73553992 190.47999309 134.08425462 216.52109472 114.1875 239.25 C113.48238281 240.08789062 112.77726562 240.92578125 112.05078125 241.7890625 C100.10133362 255.64784736 85.10283559 265.64923693 69.09375 274.22607422 C67.45955805 275.10386636 65.83781147 276.00476003 64.21875 276.91015625 C40.42982378 289.16406742 11.47175901 291.86429458 -14.8125 289.25 C-16.03453125 289.14816406 -17.2565625 289.04632813 -18.515625 288.94140625 C-33.63629315 287.35406338 -48.1094565 282.65033629 -62.0625 276.75 C-62.90699707 276.39478271 -63.75149414 276.03956543 -64.62158203 275.67358398 C-70.46291508 273.10588213 -75.60515574 269.92200934 -80.8125 266.25 C-82.21242188 265.30253906 -82.21242188 265.30253906 -83.640625 264.3359375 C-93.20988925 257.57571534 -101.57770484 249.55099126 -109.8125 241.25 C-111.02679688 240.09757812 -111.02679688 240.09757812 -112.265625 238.921875 C-134.83784303 215.24181805 -147.05503742 180.59365223 -147.8125 148.25 C-147.83223877 147.53110596 -147.85197754 146.81221191 -147.87231445 146.0715332 C-147.97910906 139.20016166 -147.32678437 132.50332937 -146.5 125.6875 C-146.38205078 124.61564453 -146.26410156 123.54378906 -146.14257812 122.43945312 C-145.37750415 116.02460208 -144.0854304 110.28749471 -141.8125 104.25 C-141.44769531 103.13496094 -141.08289063 102.01992187 -140.70703125 100.87109375 C-133.85186236 80.70155352 -123.13886376 62.96183515 -108.8125 47.25 C-108.36068359 46.74758789 -107.90886719 46.24517578 -107.44335938 45.72753906 C-80.04347047 15.60334074 -40.24511993 0.03280006 0 0 Z " fill="#FAFAFA" transform="translate(422.8125,53.75)"/>
<path d="M0 0 C0.98484375 -0.00128906 1.9696875 -0.00257813 2.984375 -0.00390625 C4.02078125 -0.00003906 5.0571875 0.00382812 6.125 0.0078125 C7.67960937 0.00201172 7.67960937 0.00201172 9.265625 -0.00390625 C10.25046875 -0.00261719 11.2353125 -0.00132812 12.25 0 C13.16007812 0.00112793 14.07015625 0.00225586 15.0078125 0.00341797 C17.125 0.1328125 17.125 0.1328125 18.125 1.1328125 C18.22311135 2.71203979 18.25131892 4.29565783 18.25198364 5.87792969 C18.25621338 7.41761414 18.25621338 7.41761414 18.26052856 8.98840332 C18.25749222 10.69183899 18.25749222 10.69183899 18.25439453 12.4296875 C18.25702301 14.21240051 18.25702301 14.21240051 18.25970459 16.03112793 C18.2633627 19.29964026 18.26248972 22.56811239 18.2593255 25.83662415 C18.25680147 29.25013313 18.25913956 32.66363935 18.26071167 36.07714844 C18.26253324 41.81055181 18.26012739 47.54394233 18.25537109 53.27734375 C18.24992849 59.91487026 18.25169116 66.55236605 18.2571975 73.18989182 C18.26172899 78.87905516 18.262379 84.56820924 18.25975883 90.25737381 C18.25819626 93.6595027 18.25800175 97.06161714 18.26129532 100.46374512 C18.26382009 104.25449738 18.25998371 108.04518973 18.25439453 111.8359375 C18.25641876 112.97156128 18.25844299 114.10718506 18.26052856 115.27722168 C18.25770874 116.30367798 18.25488892 117.33013428 18.25198364 118.38769531 C18.2514181 119.73386932 18.2514181 119.73386932 18.25084114 121.10723877 C18.125 123.1328125 18.125 123.1328125 17.125 124.1328125 C15.41727642 124.21995081 13.70601351 124.23981257 11.99609375 124.23046875 C10.44438477 124.22563477 10.44438477 124.22563477 8.86132812 124.22070312 C7.77271484 124.21232422 6.68410156 124.20394531 5.5625 124.1953125 C3.9237793 124.18854492 3.9237793 124.18854492 2.25195312 124.18164062 C-0.45708495 124.16981076 -3.16601599 124.15332793 -5.875 124.1328125 C-5.875 122.1528125 -5.875 120.1728125 -5.875 118.1328125 C-6.75542969 118.55433594 -7.63585937 118.97585938 -8.54296875 119.41015625 C-9.70441406 119.95800781 -10.86585938 120.50585938 -12.0625 121.0703125 C-13.21105469 121.61558594 -14.35960937 122.16085937 -15.54296875 122.72265625 C-25.75894147 127.04618046 -37.64071695 125.94186354 -47.875 122.1328125 C-60.0955545 116.09615305 -67.96337738 106.76731543 -72.875 94.1328125 C-76.62575689 80.6084487 -74.95576943 67.81236512 -68.31640625 55.4453125 C-61.83773389 45.05134492 -52.76111138 38.12761602 -40.875 35.1328125 C-30.40425686 33.40450911 -21.92807719 34.57562385 -12.0703125 38.21484375 C-10.60489014 38.75395386 -10.60489014 38.75395386 -9.10986328 39.30395508 C-8.00360596 39.7142395 -8.00360596 39.7142395 -6.875 40.1328125 C-6.83741577 38.36852905 -6.83741577 38.36852905 -6.79907227 36.56860352 C-6.70517194 32.22066628 -6.60490952 27.87289534 -6.50268555 23.52514648 C-6.45927067 21.64042032 -6.41760057 19.75565314 -6.37768555 17.87084961 C-6.32014107 15.16768001 -6.25640196 12.46471814 -6.19140625 9.76171875 C-6.17469376 8.91380264 -6.15798126 8.06588654 -6.14076233 7.192276 C-5.95721158 0.00738323 -5.95721158 0.00738323 0 0 Z M-42.875 62.1328125 C-42.875 62.7928125 -42.875 63.4528125 -42.875 64.1328125 C-43.865 64.6278125 -43.865 64.6278125 -44.875 65.1328125 C-49.62532522 69.58624239 -50.43617855 74.87745571 -50.875 81.1328125 C-50.64885915 87.84165783 -48.00233074 91.83976024 -43.53125 96.69921875 C-41.9880522 98.35096423 -41.9880522 98.35096423 -39.875 98.1328125 C-39.4625 98.6071875 -39.05 99.0815625 -38.625 99.5703125 C-34.88115952 102.91302721 -28.93238221 102.42474329 -24.11328125 102.34375 C-19.02955464 101.86465535 -15.35749587 100.00026292 -12.125 96.1328125 C-11.3825 95.1428125 -10.64 94.1528125 -9.875 93.1328125 C-9.318125 92.6584375 -8.76125 92.1840625 -8.1875 91.6953125 C-4.57145243 87.39049396 -4.5722727 81.48099488 -4.875 76.1328125 C-5.30354995 73.82244335 -5.30354995 73.82244335 -5.875 72.1328125 C-6.535 72.1328125 -7.195 72.1328125 -7.875 72.1328125 C-8.37 69.1628125 -8.37 69.1628125 -8.875 66.1328125 C-9.865 65.8028125 -10.855 65.4728125 -11.875 65.1328125 C-13.0625 63.0703125 -13.0625 63.0703125 -13.875 61.1328125 C-14.865 61.1328125 -15.855 61.1328125 -16.875 61.1328125 C-16.875 60.4728125 -16.875 59.8128125 -16.875 59.1328125 C-25.45107763 54.55890443 -35.18864173 57.00857365 -42.875 62.1328125 Z " fill="#EFEFEF" transform="translate(321.875,387.8671875)"/>
<path d="M0 0 C1.875 1.625 1.875 1.625 3 3 C3 1.02 3 -0.96 3 -3 C10.59 -3 18.18 -3 26 -3 C26.02255024 8.32611985 26.04091463 19.65222491 26.05181217 30.97836208 C26.05704119 36.23696664 26.06413918 41.4955551 26.07543945 46.75415039 C26.08626766 51.82453127 26.09227669 56.89489662 26.09487724 61.96528816 C26.09673161 63.90426948 26.10035245 65.84324991 26.10573006 67.78222466 C26.1129396 70.4882176 26.11399098 73.19414556 26.11352539 75.90014648 C26.11712067 76.71006546 26.12071594 77.51998444 26.12442017 78.35444641 C26.11405216 83.88594784 26.11405216 83.88594784 25 85 C23.36527118 85.08700342 21.72685945 85.10701063 20.08984375 85.09765625 C19.10048828 85.09443359 18.11113281 85.09121094 17.09179688 85.08789062 C16.05087891 85.07951172 15.00996094 85.07113281 13.9375 85.0625 C12.89271484 85.05798828 11.84792969 85.05347656 10.77148438 85.04882812 C8.1809334 85.03699913 5.59049441 85.02051689 3 85 C3 83.02 3 81.04 3 79 C2.04738281 79.42152344 1.09476562 79.84304688 0.11328125 80.27734375 C-1.1535326 80.83098832 -2.42046605 81.38435931 -3.6875 81.9375 C-4.31333984 82.21529297 -4.93917969 82.49308594 -5.58398438 82.77929688 C-15.25881776 86.98354384 -25.96246142 87.4117742 -36 84 C-47.42124211 79.47749473 -56.56184479 72.19746132 -62 61 C-66.9284244 48.678939 -67.99387891 35.53801344 -62.8125 23.1640625 C-59.52688126 16.07498293 -55.64085273 10.4067462 -50 5 C-49.49210937 4.50886719 -48.98421875 4.01773437 -48.4609375 3.51171875 C-34.28910488 -8.2254657 -15.97747302 -5.86834016 0 0 Z M-37 26 C-41.45547518 32.42732399 -42.24160936 37.38930518 -42 45 C-41.67 45.99 -41.34 46.98 -41 48 C-40.34 48 -39.68 48 -39 48 C-39.33 48.99 -39.66 49.98 -40 51 C-37.06220261 55.52530281 -33.00081655 59.87465296 -28 62 C-20.15173522 63.5987206 -14.24703559 63.55514954 -7 60 C-5.824375 59.505 -5.824375 59.505 -4.625 59 C-2.65169931 58.02546436 -2.65169931 58.02546436 -2 55 C-1.525625 54.54625 -1.05125 54.0925 -0.5625 53.625 C3.0581776 49.85949529 3.27345638 45.519666 3.25 40.5 C3.25515625 39.3965625 3.2603125 38.293125 3.265625 37.15625 C2.90525009 32.87414815 2.05443675 30.05443675 -1 27 C-1.66 26.01 -2.32 25.02 -3 24 C-3.99 24 -4.98 24 -6 24 C-6.2475 23.360625 -6.495 22.72125 -6.75 22.0625 C-7.81408299 19.84359462 -7.81408299 19.84359462 -10 19.1875 C-12.07160124 18.81548911 -12.07160124 18.81548911 -14 20 C-14 19.34 -14 18.68 -14 18 C-23.36776952 17.30893504 -30.1550017 19.34514054 -37 26 Z " fill="#F2F2F1" transform="translate(419,427)"/>
<path d="M0 0 C7.16292845 6.16878536 13.30138102 12.76844968 16.1953125 21.890625 C16.73091797 23.51097656 16.73091797 23.51097656 17.27734375 25.1640625 C18.26377386 29.168549 18.42765775 32.64801594 18.3828125 36.765625 C18.37636719 38.08304687 18.36992188 39.40046875 18.36328125 40.7578125 C18.1953125 43.890625 18.1953125 43.890625 17.1953125 44.890625 C15.2009952 44.98467642 13.20331707 45.00805749 11.20678711 45.00415039 C9.92553452 45.00407486 8.64428192 45.00399933 7.32420349 45.00392151 C5.91535402 44.99881409 4.50650494 44.99359809 3.09765625 44.98828125 C1.66419016 44.98641702 0.23072343 44.98499314 -1.20274353 44.98399353 C-4.98228707 44.98016872 -8.7617924 44.97033877 -12.5413208 44.95928955 C-16.39538048 44.94907463 -20.24944632 44.94449574 -24.10351562 44.93945312 C-31.67059037 44.92871646 -39.23763359 44.91164049 -46.8046875 44.890625 C-46.34502656 46.16676907 -45.88054416 47.4411771 -45.4140625 48.71484375 C-45.15592773 49.42471436 -44.89779297 50.13458496 -44.63183594 50.8659668 C-42.92226239 55.05058706 -40.72104149 57.31292357 -36.9296875 59.703125 C-30.9180584 61.97215637 -22.7244022 62.29052311 -16.671875 60.12890625 C-14.38289012 58.67384803 -12.9244234 57.0900238 -11.53393555 54.77441406 C-9.8046875 52.890625 -9.8046875 52.890625 -7.07739258 52.43652344 C-6.00384521 52.4574707 -4.93029785 52.47841797 -3.82421875 52.5 C-2.66083984 52.51289063 -1.49746094 52.52578125 -0.29882812 52.5390625 C0.91611328 52.57257813 2.13105469 52.60609375 3.3828125 52.640625 C4.60935547 52.65867187 5.83589844 52.67671875 7.09960938 52.6953125 C10.13229009 52.74251376 13.16341337 52.80834823 16.1953125 52.890625 C11.31986333 65.63608855 5.13695033 73.40334429 -7.4921875 79.328125 C-20.47506997 84.42355737 -32.86399467 84.12231568 -45.8046875 78.890625 C-57.67056516 73.29768266 -65.20024268 65.09517754 -69.8046875 52.890625 C-70.16175781 52.06175781 -70.51882813 51.23289062 -70.88671875 50.37890625 C-74.78311724 39.81717929 -72.50061779 27.40008837 -68.12109375 17.33203125 C-61.91725136 5.82638884 -52.25340821 -2.29227882 -39.8046875 -6.109375 C-25.92530481 -9.89859804 -11.92195271 -8.71050419 0 0 Z M-31.8046875 12.890625 C-31.1446875 13.550625 -30.4846875 14.210625 -29.8046875 14.890625 C-30.4646875 15.550625 -31.1246875 16.210625 -31.8046875 16.890625 C-33.7846875 16.230625 -35.7646875 15.570625 -37.8046875 14.890625 C-38.5884375 15.674375 -39.3721875 16.458125 -40.1796875 17.265625 C-41.72135417 18.80729167 -43.26302083 20.34895833 -44.8046875 21.890625 C-44.8046875 22.880625 -44.8046875 23.870625 -44.8046875 24.890625 C-44.1446875 24.890625 -43.4846875 24.890625 -42.8046875 24.890625 C-42.4746875 25.550625 -42.1446875 26.210625 -41.8046875 26.890625 C-40.8146875 26.230625 -39.8246875 25.570625 -38.8046875 24.890625 C-38.8046875 25.550625 -38.8046875 26.210625 -38.8046875 26.890625 C-30.8846875 26.890625 -22.9646875 26.890625 -14.8046875 26.890625 C-14.4746875 25.900625 -14.1446875 24.910625 -13.8046875 23.890625 C-13.1446875 23.890625 -12.4846875 23.890625 -11.8046875 23.890625 C-11.8046875 24.880625 -11.8046875 25.870625 -11.8046875 26.890625 C-10.4846875 26.890625 -9.1646875 26.890625 -7.8046875 26.890625 C-8.2996875 24.415625 -8.2996875 24.415625 -8.8046875 21.890625 C-9.7946875 21.560625 -10.7846875 21.230625 -11.8046875 20.890625 C-11.95035156 20.25640625 -12.09601562 19.6221875 -12.24609375 18.96875 C-12.6083296 16.76055675 -12.6083296 16.76055675 -14.51953125 15.625 C-20.44368766 13.00129628 -25.35740729 12.40606949 -31.8046875 12.890625 Z M-34.8046875 13.890625 C-34.8046875 14.550625 -34.8046875 15.210625 -34.8046875 15.890625 C-33.8146875 15.560625 -32.8246875 15.230625 -31.8046875 14.890625 C-32.7946875 14.560625 -33.7846875 14.230625 -34.8046875 13.890625 Z " fill="#F1F1F1" transform="translate(783.8046875,430.109375)"/>
<path d="M0 0 C2.21484375 1.51953125 2.21484375 1.51953125 3.21484375 3.51953125 C4.20484375 4.17953125 5.19484375 4.83953125 6.21484375 5.51953125 C13.76598296 15.58771687 13.36681976 26.23988457 13.34765625 38.29296875 C13.34861298 39.61245514 13.3495697 40.93194153 13.35055542 42.29141235 C13.35202281 45.07010074 13.34990675 47.8487568 13.34521484 50.62744141 C13.33948463 54.19531984 13.34282324 57.7631236 13.34878731 61.33099937 C13.3532553 64.73499528 13.35013519 68.13897072 13.34765625 71.54296875 C13.34968048 72.82827484 13.35170471 74.11358093 13.35379028 75.43783569 C13.34906204 77.20569931 13.34906204 77.20569931 13.34423828 79.00927734 C13.34344269 80.05183685 13.34264709 81.09439636 13.34182739 82.16854858 C13.21484375 84.51953125 13.21484375 84.51953125 12.21484375 85.51953125 C10.50712017 85.60666956 8.79585726 85.62653132 7.0859375 85.6171875 C5.53422852 85.61235352 5.53422852 85.61235352 3.95117188 85.60742188 C2.86255859 85.59904297 1.77394531 85.59066406 0.65234375 85.58203125 C-0.98637695 85.57526367 -0.98637695 85.57526367 -2.65820312 85.56835938 C-5.3672412 85.55652951 -8.07617224 85.54004668 -10.78515625 85.51953125 C-11.98866444 80.82454629 -11.89552953 76.29212501 -11.84765625 71.484375 C-11.84386963 70.60987198 -11.84008301 69.73536896 -11.83618164 68.83436584 C-11.81994464 65.11192938 -11.79201161 61.38960511 -11.76464844 57.66723633 C-10.44898833 39.27243164 -10.44898833 39.27243164 -15.78515625 22.51953125 C-21.06277418 18.44339464 -26.39894139 18.91297082 -32.78515625 19.51953125 C-37.27914739 20.80352872 -38.38859861 21.89717892 -40.90332031 25.84375 C-43.6032478 31.49035037 -43.38802368 37.17863904 -43.39453125 43.33203125 C-43.4110675 44.54149414 -43.42760376 45.75095703 -43.44464111 46.99707031 C-43.49299966 50.83794293 -43.51446631 54.67841989 -43.53515625 58.51953125 C-43.56332589 61.13283227 -43.5932547 63.74611497 -43.625 66.359375 C-43.69875574 72.74602222 -43.75046944 79.13255872 -43.78515625 85.51953125 C-47.76430784 85.54840109 -51.74343278 85.56628531 -55.72265625 85.58203125 C-57.42711914 85.59459961 -57.42711914 85.59459961 -59.16601562 85.60742188 C-60.24560547 85.61064453 -61.32519531 85.61386719 -62.4375 85.6171875 C-63.9378479 85.62504272 -63.9378479 85.62504272 -65.46850586 85.63305664 C-67.78515625 85.51953125 -67.78515625 85.51953125 -68.78515625 84.51953125 C-68.88560678 81.84703058 -68.92132274 79.20034544 -68.91455078 76.52734375 C-68.9163031 75.68999695 -68.91805542 74.85265015 -68.91986084 73.9899292 C-68.92428026 71.20810911 -68.92134105 68.42635204 -68.91796875 65.64453125 C-68.91864176 63.72021472 -68.91961177 61.79589827 -68.92086792 59.87158203 C-68.92234502 55.8329996 -68.92018996 51.79443925 -68.91552734 47.75585938 C-68.90983005 42.56684614 -68.91310899 37.37788462 -68.91909981 32.18887329 C-68.92270511 28.21361905 -68.92156698 24.23837716 -68.91897202 20.26312256 C-68.91830266 18.34926345 -68.91913147 16.43540323 -68.92145157 14.52154541 C-68.92397758 11.85157275 -68.92013823 9.18168505 -68.91455078 6.51171875 C-68.91657501 5.71272156 -68.91859924 4.91372437 -68.92068481 4.09051514 C-68.89941875 -1.36620625 -68.89941875 -1.36620625 -67.78515625 -2.48046875 C-66.07743267 -2.56760706 -64.36616976 -2.58746882 -62.65625 -2.578125 C-61.10454102 -2.57329102 -61.10454102 -2.57329102 -59.52148438 -2.56835938 C-58.43287109 -2.55998047 -57.34425781 -2.55160156 -56.22265625 -2.54296875 C-54.58393555 -2.53620117 -54.58393555 -2.53620117 -52.91210938 -2.52929688 C-50.2030713 -2.51746701 -47.49414026 -2.50098418 -44.78515625 -2.48046875 C-44.45515625 -0.83046875 -44.12515625 0.81953125 -43.78515625 2.51953125 C-43.14449219 2.18179687 -42.50382813 1.8440625 -41.84375 1.49609375 C-28.41492967 -5.42845444 -13.90774636 -7.39275718 0 0 Z " fill="#FAFAFA" transform="translate(684.78515625,426.48046875)"/>
<path d="M0 0 C10.62330933 7.55816094 19.00832769 17.20369773 21.6796875 30.30078125 C21.88833241 32.04627404 22.05709271 33.79714266 22.1796875 35.55078125 C22.29957031 36.76121094 22.29957031 36.76121094 22.421875 37.99609375 C23.08884702 50.19775843 18.05756211 60.54749598 10.1796875 69.55078125 C2.46768086 77.9638794 -8.20256538 84.15819171 -19.76171875 84.75390625 C-36.87434676 85.04891957 -48.9036394 81.42108375 -61.8203125 69.55078125 C-63.45162352 67.36479109 -64.77140836 65.07096048 -66.0703125 62.67578125 C-66.40804687 62.08925781 -66.74578125 61.50273437 -67.09375 60.8984375 C-72.86158256 50.56629649 -74.48370558 38.08018335 -71.2578125 26.67578125 C-69.2288395 20.98628994 -66.52809282 16.29524574 -62.8203125 11.55078125 C-62.38074219 10.9371875 -61.94117188 10.32359375 -61.48828125 9.69140625 C-47.51127651 -8.51495151 -19.06645344 -11.83796285 0 0 Z M-37.8203125 19.55078125 C-39.09244394 21.5719301 -39.09244394 21.5719301 -39.8203125 23.55078125 C-40.4803125 23.55078125 -41.1403125 23.55078125 -41.8203125 23.55078125 C-45.47902837 27.40326089 -47.4932631 31.2089744 -47.8203125 36.55078125 C-47.87058594 37.23785156 -47.92085937 37.92492187 -47.97265625 38.6328125 C-48.12255913 41.06564066 -48.12255913 41.06564066 -47.8203125 44.55078125 C-44.97204652 46.91771091 -44.97204652 46.91771091 -41.6328125 46.17578125 C-40.7046875 45.96953125 -39.7765625 45.76328125 -38.8203125 45.55078125 C-39.8103125 48.02578125 -39.8103125 48.02578125 -40.8203125 50.55078125 C-41.3153125 49.06578125 -41.3153125 49.06578125 -41.8203125 47.55078125 C-42.8103125 47.88078125 -43.8003125 48.21078125 -44.8203125 48.55078125 C-44.1603125 50.53078125 -43.5003125 52.51078125 -42.8203125 54.55078125 C-42.1603125 54.55078125 -41.5003125 54.55078125 -40.8203125 54.55078125 C-40.8203125 55.21078125 -40.8203125 55.87078125 -40.8203125 56.55078125 C-39.53380544 57.24788856 -38.24090585 57.93321001 -36.9453125 58.61328125 C-36.22601562 58.99613281 -35.50671875 59.37898438 -34.765625 59.7734375 C-34.12367188 60.02996094 -33.48171875 60.28648437 -32.8203125 60.55078125 C-31.8303125 60.05578125 -31.8303125 60.05578125 -30.8203125 59.55078125 C-30.8203125 60.21078125 -30.8203125 60.87078125 -30.8203125 61.55078125 C-30.1603125 61.88078125 -29.5003125 62.21078125 -28.8203125 62.55078125 C-30.4951381 71.77217398 -30.4951381 71.77217398 -33.8203125 75.55078125 C-33.8203125 76.21078125 -33.8203125 76.87078125 -33.8203125 77.55078125 C-35.1403125 78.21078125 -36.4603125 78.87078125 -37.8203125 79.55078125 C-29.74782802 80.50048531 -23.89762165 77.17574447 -16.8203125 73.55078125 C-17.4803125 72.89078125 -18.1403125 72.23078125 -18.8203125 71.55078125 C-19.8103125 72.04578125 -19.8103125 72.04578125 -20.8203125 72.55078125 C-20.8203125 71.89078125 -20.8203125 71.23078125 -20.8203125 70.55078125 C-19.5003125 70.55078125 -18.1803125 70.55078125 -16.8203125 70.55078125 C-16.3253125 71.04578125 -16.3253125 71.04578125 -15.8203125 71.55078125 C-12.29161469 70.13930213 -11.40575299 68.91984229 -9.8203125 65.55078125 C-8.48697917 64.21744792 -7.15364583 62.88411458 -5.8203125 61.55078125 C-0.97024452 52.6281371 -0.4327721 44.64118488 -0.8203125 34.55078125 C-1.3153125 36.03578125 -1.3153125 36.03578125 -1.8203125 37.55078125 C-2.8103125 37.22078125 -3.8003125 36.89078125 -4.8203125 36.55078125 C-4.98819623 34.92590654 -5.15458037 33.30087683 -5.3203125 31.67578125 C-5.413125 30.77085937 -5.5059375 29.8659375 -5.6015625 28.93359375 C-5.8203125 26.55078125 -5.8203125 26.55078125 -5.8203125 24.55078125 C-7.47102646 23.52466176 -9.14001256 22.52769982 -10.8203125 21.55078125 C-11.3359375 21.01453125 -11.8515625 20.47828125 -12.3828125 19.92578125 C-14.12509343 18.25925167 -15.49098747 18.01664626 -17.8203125 17.55078125 C-18.1503125 17.22078125 -18.4803125 16.89078125 -18.8203125 16.55078125 C-25.25230291 15.88716319 -32.11236612 16.25395015 -37.8203125 19.55078125 Z M-5.8203125 27.55078125 C-5.1603125 28.87078125 -4.5003125 30.19078125 -3.8203125 31.55078125 C-3.4903125 30.89078125 -3.1603125 30.23078125 -2.8203125 29.55078125 C-3.1503125 28.89078125 -3.4803125 28.23078125 -3.8203125 27.55078125 C-4.4803125 27.55078125 -5.1403125 27.55078125 -5.8203125 27.55078125 Z M-3.8203125 31.55078125 C-3.4903125 32.87078125 -3.1603125 34.19078125 -2.8203125 35.55078125 C-2.4903125 34.23078125 -2.1603125 32.91078125 -1.8203125 31.55078125 C-2.4803125 31.55078125 -3.1403125 31.55078125 -3.8203125 31.55078125 Z " fill="#ECECEC" transform="translate(581.8203125,428.44921875)"/>
<path d="M0 0 C9.33540849 7.12279544 16.9762006 16.61612055 19.3984375 28.37109375 C20.9526735 41.49808701 19.73631798 52.86577769 12 64.0625 C10.93227605 65.34376874 9.82469116 66.5924671 8.6875 67.8125 C7.99011719 68.56273437 7.29273438 69.31296875 6.57421875 70.0859375 C-2.40033742 78.9282989 -13.71950801 83.87431425 -26.375 84.0625 C-38.40122533 83.91352649 -47.34340608 80.41888463 -57.3125 73.8125 C-58.92125 72.760625 -58.92125 72.760625 -60.5625 71.6875 C-69.95507823 61.8679864 -74.3391271 50.64005339 -74.6875 37.1875 C-74.54760005 31.17788465 -73.89720599 26.24142061 -71.3125 20.8125 C-70.96058594 20.06613281 -70.60867187 19.31976563 -70.24609375 18.55078125 C-64.4785113 7.33921009 -55.64406383 -0.9403866 -43.875 -5.625 C-29.39446221 -9.93557246 -12.68519873 -8.26459917 0 0 Z M-25.375 -1.4375 C-26.39722656 -1.11265625 -27.41945313 -0.7878125 -28.47265625 -0.453125 C-31.50966836 0.90037146 -33.21203735 2.253663 -35.3125 4.8125 C-35.3125 5.4725 -35.3125 6.1325 -35.3125 6.8125 C-36.3025 6.4825 -37.2925 6.1525 -38.3125 5.8125 C-39.68812854 7.10215176 -41.02016393 8.43939293 -42.3125 9.8125 C-42.3125 10.4725 -42.3125 11.1325 -42.3125 11.8125 C-43.3025 12.1425 -44.2925 12.4725 -45.3125 12.8125 C-45.3125 13.4725 -45.3125 14.1325 -45.3125 14.8125 C-45.745625 15.204375 -46.17875 15.59625 -46.625 16 C-51.90725332 21.67353134 -52.67499856 29.71442386 -52.59765625 37.1171875 C-51.90561755 43.65837517 -49.04035205 50.21597717 -44.3125 54.8125 C-37.72843286 59.58730902 -32.55069625 61.41529485 -24.3125 60.8125 C-16.9189115 59.28279203 -12.19265724 56.54896837 -8 50.25 C-4.98901757 44.93742891 -4.07989655 39.89052935 -4.3125 33.8125 C-4.6425 32.8225 -4.9725 31.8325 -5.3125 30.8125 C-5.9725 30.8125 -6.6325 30.8125 -7.3125 30.8125 C-6.9825 29.8225 -6.6525 28.8325 -6.3125 27.8125 C-8.55229568 24.57473489 -8.55229568 24.57473489 -11.3125 21.8125 C-11.9725 21.8125 -12.6325 21.8125 -13.3125 21.8125 C-13.9725 20.4925 -14.6325 19.1725 -15.3125 17.8125 C-16.9625 17.8125 -18.6125 17.8125 -20.3125 17.8125 C-20.3125 17.1525 -20.3125 16.4925 -20.3125 15.8125 C-21.6325 15.8125 -22.9525 15.8125 -24.3125 15.8125 C-23.0710036 7.64085951 -20.193053 2.53875277 -14.3125 -3.1875 C-18.35868953 -3.39614329 -21.53483871 -2.69975276 -25.375 -1.4375 Z " fill="#F0F0F0" transform="translate(215.3125,429.1875)"/>
<path d="M0 0 C8.91 0 17.82 0 27 0 C29.66464932 7.10573152 32.25752661 14.2296376 34.8125 21.375 C35.25392334 22.60839111 35.69534668 23.84178223 36.15014648 25.11254883 C38.96851781 33.01894423 41.71108146 40.94404378 44.28637695 48.93310547 C45.16821732 52.22917135 45.16821732 52.22917135 47 55 C48.48157308 50.87586052 49.96017742 46.75066395 51.4375 42.625 C51.66009491 42.00362152 51.88268982 41.38224304 52.11203003 40.74203491 C55.89961804 30.16175038 59.59898319 19.55373062 63.21850586 8.91455078 C63.57050049 7.88700684 63.92249512 6.85946289 64.28515625 5.80078125 C64.59332275 4.89497314 64.90148926 3.98916504 65.21899414 3.0559082 C66 1 66 1 67 0 C68.92667507 -0.08748207 70.85651861 -0.10697334 72.78515625 -0.09765625 C73.95498047 -0.09443359 75.12480469 -0.09121094 76.33007812 -0.08789062 C77.56177734 -0.07951172 78.79347656 -0.07113281 80.0625 -0.0625 C81.91584961 -0.05573242 81.91584961 -0.05573242 83.80664062 -0.04882812 C86.87114117 -0.03699608 89.93554721 -0.02051173 93 0 C91.23974514 6.94187305 89.14814437 13.52637413 86.375 20.125 C83.29370415 27.64688171 80.41779679 35.21884095 77.6875 42.875 C77.32309814 43.89489014 76.95869629 44.91478027 76.58325195 45.96557617 C75.81069182 48.1291092 75.03848717 50.29276919 74.26660156 52.45654297 C72.12642258 58.4439288 69.97306422 64.42637887 67.8006897 70.40216064 C67.31073342 71.75306991 66.8228998 73.10475103 66.33724976 74.45721436 C65.65844117 76.3470582 64.97196637 78.23414312 64.28515625 80.12109375 C63.89207275 81.2083374 63.49898926 82.29558105 63.09399414 83.41577148 C62 86 62 86 60 88 C57.20263672 88.22705078 57.20263672 88.22705078 53.6796875 88.1953125 C51.79443359 88.18564453 51.79443359 88.18564453 49.87109375 88.17578125 C48.55238281 88.15902344 47.23367187 88.14226562 45.875 88.125 C44.53516279 88.11496983 43.19531848 88.10584404 41.85546875 88.09765625 C38.57013427 88.07402075 35.28515535 88.04107234 32 88 C28.64709183 80.43646297 25.62719149 72.989551 23.04983521 65.12438965 C20.72242548 58.06886725 18.13156702 51.11771474 15.52206421 44.16256714 C14.0921332 40.35016726 12.67198619 36.53411859 11.25 32.71875 C10.97053024 31.96963852 10.69106049 31.22052704 10.40312195 30.44871521 C7.97960732 23.95167235 5.57094561 17.44936433 3.1875 10.9375 C2.85645264 10.04087646 2.52540527 9.14425293 2.18432617 8.22045898 C0 2.23345488 0 2.23345488 0 0 Z " fill="#F2F2F2" transform="translate(48,424)"/>
<path d="M0 0 C1 1 1 1 1.11352539 2.94946289 C1.10828857 3.7821167 1.10305176 4.61477051 1.09765625 5.47265625 C1.09443359 6.37177734 1.09121094 7.27089844 1.08789062 8.19726562 C1.07532227 9.61555664 1.07532227 9.61555664 1.0625 11.0625 C1.05798828 12.01189453 1.05347656 12.96128906 1.04882812 13.93945312 C1.0370011 16.29303065 1.02052025 18.64648477 1 21 C-1.39342253 21.62684876 -3.66514196 22.09311987 -6.125 22.4375 C-9.11738682 22.74526903 -9.11738682 22.74526903 -11 25 C-11.45662153 27.19291082 -11.820412 29.40585889 -12.125 31.625 C-12.41375 33.72875 -12.7025 35.8325 -13 38 C-8.38 38 -3.76 38 1 38 C1 44.93 1 51.86 1 59 C-5.435 59.495 -5.435 59.495 -12 60 C-11.99476318 61.96380615 -11.98952637 63.9276123 -11.98413086 65.95092773 C-11.96803361 72.42495879 -11.9565279 78.89898513 -11.94818783 85.37303066 C-11.94295969 89.29988658 -11.93586331 93.22672094 -11.92456055 97.15356445 C-11.9137292 100.94014257 -11.90772264 104.7266999 -11.90512276 108.51329231 C-11.90326895 109.96104319 -11.89964919 111.40879288 -11.89426994 112.85653496 C-11.88705633 114.87757135 -11.88659192 116.89862848 -11.88647461 118.91967773 C-11.884254 120.07217514 -11.88203339 121.22467255 -11.87974548 122.41209412 C-12 125 -12 125 -13 126 C-14.70772358 126.08713831 -16.41898649 126.10700007 -18.12890625 126.09765625 C-19.68061523 126.09282227 -19.68061523 126.09282227 -21.26367188 126.08789062 C-22.35228516 126.07951172 -23.44089844 126.07113281 -24.5625 126.0625 C-26.2012207 126.05573242 -26.2012207 126.05573242 -27.87304688 126.04882812 C-30.58208495 126.03699826 -33.29101599 126.02051543 -36 126 C-36.89208006 122.18338418 -37.1215001 118.65654759 -37.11352539 114.7409668 C-37.11344986 113.50005783 -37.11337433 112.25914886 -37.11329651 110.9806366 C-37.10819072 109.63683023 -37.10297474 108.29302429 -37.09765625 106.94921875 C-37.09578965 105.56631013 -37.09436689 104.18340085 -37.09336853 102.80049133 C-37.08956237 99.17225294 -37.07974843 95.544055 -37.06866455 91.91583252 C-37.05840945 88.20886787 -37.05386215 84.50189664 -37.04882812 80.79492188 C-37.03812435 73.52992954 -37.0210709 66.26497045 -37 59 C-39.97 59 -42.94 59 -46 59 C-46 52.07 -46 45.14 -46 38 C-43.03 38 -40.06 38 -37 38 C-37.04125 36.783125 -37.0825 35.56625 -37.125 34.3125 C-37.09509763 24.83344793 -35.83733065 16.2234621 -31 8 C-30.34 8 -29.68 8 -29 8 C-29 7.34 -29 6.68 -29 6 C-19.65628856 1.24739616 -10.45475884 -0.50587543 0 0 Z " fill="#F8F8F7" transform="translate(505,386)"/>
<path d="M0 0 C0.9583374 0.00523682 1.9166748 0.01047363 2.90405273 0.01586914 C4.45576172 0.02070313 4.45576172 0.02070313 6.03881836 0.02563477 C7.12743164 0.03401367 8.21604492 0.04239258 9.33764648 0.05102539 C10.97636719 0.05779297 10.97636719 0.05779297 12.64819336 0.06469727 C15.35723144 0.07652713 18.06616248 0.09300996 20.77514648 0.11352539 C20.89889648 0.91790039 21.02264648 1.72227539 21.15014648 2.55102539 C21.35639648 3.39665039 21.56264648 4.24227539 21.77514648 5.11352539 C22.43514648 5.44352539 23.09514648 5.77352539 23.77514648 6.11352539 C21.79514648 7.10352539 21.79514648 7.10352539 19.77514648 8.11352539 C19.77514648 5.80352539 19.77514648 3.49352539 19.77514648 1.11352539 C12.84514648 1.11352539 5.91514648 1.11352539 -1.22485352 1.11352539 C-1.22485352 29.49352539 -1.22485352 57.87352539 -1.22485352 87.11352539 C6.03514648 87.11352539 13.29514648 87.11352539 20.77514648 87.11352539 C20.77514648 67.31352539 20.77514648 47.51352539 20.77514648 27.11352539 C22.09514648 26.78352539 23.41514648 26.45352539 24.77514648 26.11352539 C24.29295654 27.45265991 24.29295654 27.45265991 23.80102539 28.81884766 C22.2202694 34.38737634 22.41797434 40.0811781 22.36108398 45.82836914 C22.34171783 47.03924698 22.32235168 48.25012482 22.30239868 49.49769592 C22.24282611 53.34873506 22.19630632 57.19980444 22.15014648 61.05102539 C22.11194622 63.66887666 22.0728933 66.28671563 22.03295898 68.90454102 C21.93714282 75.30742633 21.8520303 81.71038626 21.77514648 88.11352539 C17.79599489 88.14239523 13.81686995 88.16027945 9.83764648 88.17602539 C8.13318359 88.18859375 8.13318359 88.18859375 6.39428711 88.20141602 C5.31469727 88.20463867 4.23510742 88.20786133 3.12280273 88.21118164 C1.62245483 88.21903687 1.62245483 88.21903687 0.09179688 88.22705078 C-2.22485352 88.11352539 -2.22485352 88.11352539 -3.22485352 87.11352539 C-3.32530404 84.44102472 -3.36102 81.79433958 -3.35424805 79.12133789 C-3.35600037 78.28399109 -3.35775269 77.44664429 -3.35955811 76.58392334 C-3.36397753 73.80210325 -3.36103832 71.02034618 -3.35766602 68.23852539 C-3.35833903 66.31420886 -3.35930903 64.38989241 -3.36056519 62.46557617 C-3.36204228 58.42699374 -3.35988723 54.38843339 -3.35522461 50.34985352 C-3.34952732 45.16084028 -3.35280626 39.97187877 -3.35879707 34.78286743 C-3.36240237 30.80761319 -3.36126424 26.8323713 -3.35866928 22.8571167 C-3.35799993 20.94325759 -3.35882873 19.02939737 -3.36114883 17.11553955 C-3.36367485 14.44556689 -3.3598355 11.77567919 -3.35424805 9.10571289 C-3.35627228 8.3067157 -3.35829651 7.50771851 -3.36038208 6.68450928 C-3.33499424 0.17017144 -3.33499424 0.17017144 0 0 Z " fill="#959595" transform="translate(619.224853515625,423.886474609375)"/>
<path d="M0 0 C0.33 0 0.66 0 1 0 C1 6.93 1 13.86 1 21 C-5.435 21.495 -5.435 21.495 -12 22 C-11.99214478 24.94570923 -11.99214478 24.94570923 -11.98413086 27.95092773 C-11.96803361 34.42495879 -11.9565279 40.89898513 -11.94818783 47.37303066 C-11.94295969 51.29988658 -11.93586331 55.22672094 -11.92456055 59.15356445 C-11.9137292 62.94014257 -11.90772264 66.7266999 -11.90512276 70.51329231 C-11.90326895 71.96104319 -11.89964919 73.40879288 -11.89426994 74.85653496 C-11.88705633 76.87757135 -11.88659192 78.89862848 -11.88647461 80.91967773 C-11.884254 82.07217514 -11.88203339 83.22467255 -11.87974548 84.41209412 C-12 87 -12 87 -13 88 C-14.70772358 88.08713831 -16.41898649 88.10700007 -18.12890625 88.09765625 C-19.68061523 88.09282227 -19.68061523 88.09282227 -21.26367188 88.08789062 C-22.35228516 88.07951172 -23.44089844 88.07113281 -24.5625 88.0625 C-26.2012207 88.05573242 -26.2012207 88.05573242 -27.87304688 88.04882812 C-30.58208495 88.03699826 -33.29101599 88.02051543 -36 88 C-36.86726609 83.97576532 -37.1041596 80.31180029 -37.0625 76.1875 C-37.05347656 75.02605469 -37.04445313 73.86460937 -37.03515625 72.66796875 C-37.02355469 71.78753906 -37.01195312 70.90710938 -37 70 C-36.67 70 -36.34 70 -36 70 C-35.67 75.28 -35.34 80.56 -35 86 C-28.07 86 -21.14 86 -14 86 C-14 64.22 -14 42.44 -14 20 C-9.38 20 -4.76 20 0 20 C0 13.4 0 6.8 0 0 Z " fill="#878787" transform="translate(505,424)"/>
<path d="M0 0 C0.33 0 0.66 0 1 0 C1.02312792 7.80575195 1.04091738 15.61149595 1.05181217 23.41727352 C1.05704002 27.0414596 1.06413587 30.6656223 1.07543945 34.28979492 C1.08627184 37.78459975 1.09227758 41.27938204 1.09487724 44.77420235 C1.09763551 46.76239389 1.10544688 48.75057631 1.11329651 50.73875427 C1.11340981 52.54050865 1.11340981 52.54050865 1.11352539 54.37866211 C1.115746 55.44233505 1.11796661 56.506008 1.12025452 57.60191345 C1 60 1 60 0 61 C-1.70772358 61.08713831 -3.41898649 61.10700007 -5.12890625 61.09765625 C-6.68061523 61.09282227 -6.68061523 61.09282227 -8.26367188 61.08789062 C-9.35228516 61.07951172 -10.44089844 61.07113281 -11.5625 61.0625 C-13.2012207 61.05573242 -13.2012207 61.05573242 -14.87304688 61.04882812 C-17.58208495 61.03699826 -20.29101599 61.02051543 -23 61 C-23.80821835 57.45750513 -24.12218996 54.19759307 -24.11352539 50.56713867 C-24.11344986 49.50641647 -24.11337433 48.44569427 -24.11329651 47.35282898 C-24.10813522 46.2193251 -24.10297394 45.08582123 -24.09765625 43.91796875 C-24.0962413 42.74865311 -24.09482635 41.57933746 -24.09336853 40.37458801 C-24.08777793 36.64553249 -24.07522709 32.91653733 -24.0625 29.1875 C-24.05748379 26.65690191 -24.05292109 24.12630288 -24.04882812 21.59570312 C-24.03781157 15.39711487 -24.02108273 9.19856175 -24 3 C-22 5 -22 5 -21.75949097 7.29055786 C-21.76393219 8.24542084 -21.76837341 9.20028381 -21.77294922 10.18408203 C-21.77310028 11.26505157 -21.77325134 12.34602112 -21.77340698 13.45974731 C-21.78372955 14.63060883 -21.79405212 15.80147034 -21.8046875 17.0078125 C-21.8075174 18.20356903 -21.81034729 19.39932556 -21.81326294 20.63131714 C-21.82448695 24.46264519 -21.84959569 28.29374222 -21.875 32.125 C-21.88502692 34.71744455 -21.89415327 37.30989275 -21.90234375 39.90234375 C-21.92443357 46.26831862 -21.95897867 52.6341201 -22 59 C-14.74 59 -7.48 59 0 59 C0 39.53 0 20.06 0 0 Z " fill="#858585" transform="translate(697,451)"/>
<path d="M0 0 C0.33 0.66 0.66 1.32 1 2 C0.69720123 2.75041061 0.39440247 3.50082123 0.08242798 4.27397156 C-1.10072682 7.25367433 -1.27479662 9.42275479 -1.31884766 12.61645508 C-1.33871735 13.71721878 -1.35858704 14.81798248 -1.37905884 15.95210266 C-1.39061005 17.1293541 -1.40216125 18.30660553 -1.4140625 19.51953125 C-1.43342865 20.73323898 -1.4527948 21.94694672 -1.4727478 23.19743347 C-1.53246571 27.06905111 -1.57889855 30.94069861 -1.625 34.8125 C-1.66318688 37.439466 -1.70223902 40.06641957 -1.7421875 42.69335938 C-1.83978722 49.12884114 -1.91941987 55.56419256 -2 62 C-9.92 62 -17.84 62 -26 62 C-26 61.67 -26 61.34 -26 61 C-18.41 61 -10.82 61 -3 61 C-3 41.2 -3 21.4 -3 1 C-2.01 0.67 -1.02 0.34 0 0 Z " fill="#616160" transform="translate(643,450)"/>
<path d="M0 0 C1 1 1 1 1.11352539 2.94946289 C1.10828857 3.7821167 1.10305176 4.61477051 1.09765625 5.47265625 C1.09443359 6.37177734 1.09121094 7.27089844 1.08789062 8.19726562 C1.07951172 9.14279297 1.07113281 10.08832031 1.0625 11.0625 C1.05798828 12.01189453 1.05347656 12.96128906 1.04882812 13.93945312 C1.0370011 16.29303065 1.02052025 18.64648477 1 21 C-2.41610225 21.94314127 -5.45134864 22.08065117 -9 22 C-8.67 21.34 -8.34 20.68 -8 20 C-5.69 20 -3.38 20 -1 20 C-1 14.06 -1 8.12 -1 2 C-5.95 2 -10.9 2 -16 2 C-16 1.67 -16 1.34 -16 1 C-10.67403774 0.09345323 -5.40652829 -0.39446773 0 0 Z " fill="#929292" transform="translate(505,386)"/>
<path d="M0 0 C0.66 0 1.32 0 2 0 C2 0.99 2 1.98 2 3 C3.32 3 4.64 3 6 3 C6.33 2.01 6.66 1.02 7 0 C7 1.32 7 2.64 7 4 C-6.2 4 -19.4 4 -33 4 C-32.34 3.01 -31.68 2.02 -31 1 C-29 1 -27 1 -25 1 C-25 1.66 -25 2.32 -25 3 C-17.08 2.67 -9.16 2.34 -1 2 C-0.67 1.34 -0.34 0.68 0 0 Z " fill="#525252" transform="translate(770,454)"/>
<path d="M0 0 C8.91 0 17.82 0 27 0 C27.33 1.32 27.66 2.64 28 4 C27.34 3.34 26.68 2.68 26 2 C22.18545714 1.54579163 18.33847486 1.67595224 14.5 1.6875 C13.42878906 1.67138672 12.35757813 1.65527344 11.25390625 1.63867188 C10.23167969 1.63802734 9.20945312 1.63738281 8.15625 1.63671875 C6.74569336 1.63224731 6.74569336 1.63224731 5.30664062 1.62768555 C4.54544922 1.75054932 3.78425781 1.87341309 3 2 C2.01 3.485 2.01 3.485 1 5 C0.67 3.35 0.34 1.7 0 0 Z " fill="#A0A0A0" transform="translate(48,424)"/>
<path d="M0 0 C0.33 0.99 0.66 1.98 1 3 C-5.51515152 9.81818182 -5.51515152 9.81818182 -10 12 C-10.99 12 -11.98 12 -13 12 C-8.71 8.04 -4.42 4.08 0 0 Z " fill="#A5A5A5" transform="translate(479,247)"/>
<path d="M0 0 C2 0 4 0 6 0 C6 0.66 6 1.32 6 2 C10.95 2 15.9 2 21 2 C21 2.33 21 2.66 21 3 C13.41 3 5.82 3 -2 3 C-1.34 2.01 -0.68 1.02 0 0 Z " fill="#656565" transform="translate(739,455)"/>
<path d="M0 0 C4.29 0 8.58 0 13 0 C10 3 10 3 7 4 C4.63477442 3.07796291 2.29598193 2.08301035 0 1 C0 0.67 0 0.34 0 0 Z " fill="#717171" transform="translate(536,508)"/>
<path d="M0 0 C0.33 0.66 0.66 1.32 1 2 C0.71125 2.66 0.4225 3.32 0.125 4 C-1.46771537 8.24724098 -1.66799582 12.50046969 -2 17 C-2.33 17 -2.66 17 -3 17 C-3 11.72 -3 6.44 -3 1 C-2.01 0.67 -1.02 0.34 0 0 Z " fill="#969694" transform="translate(643,450)"/>
<path d="M0 0 C0.66 0 1.32 0 2 0 C2 0.99 2 1.98 2 3 C2.66 3 3.32 3 4 3 C4.33 2.34 4.66 1.68 5 1 C7.64 1.33 10.28 1.66 13 2 C13 2.33 13 2.66 13 3 C10.36 3 7.72 3 5 3 C4.67 3.99 4.34 4.98 4 6 C2.68 5.34 1.36 4.68 0 4 C0 2.68 0 1.36 0 0 Z " fill="#1F1F1F" transform="translate(747,447)"/>
<path d="M0 0 C0.66 0.33 1.32 0.66 2 1 C-3.75 5 -3.75 5 -6 5 C-6.33 5.66 -6.66 6.32 -7 7 C-8.32 6.67 -9.64 6.34 -11 6 C-9.73168307 5.18357746 -8.46024069 4.37200895 -7.1875 3.5625 C-6.47980469 3.11003906 -5.77210938 2.65757812 -5.04296875 2.19140625 C-3 1 -3 1 0 0 Z " fill="#B3B3B3" transform="translate(539,425)"/>
<path d="M0 0 C4.46840411 0.49648935 5.68987756 0.68987756 9 4 C5.37 4 1.74 4 -2 4 C-1.01 3.34 -0.02 2.68 1 2 C0.67 1.34 0.34 0.68 0 0 Z " fill="#929292" transform="translate(469,61)"/>
<path d="M0 0 C0.99 0 1.98 0 3 0 C3 2.64 3 5.28 3 8 C2.01 8 1.02 8 0 8 C0 5.36 0 2.72 0 0 Z " fill="#1F1F1F" transform="translate(554,456)"/>
<path d="M0 0 C3.73487777 0.4979837 5.81237635 0.87491756 9 3 C6.69 3.66 4.38 4.32 2 5 C1.34 4.34 0.68 3.68 0 3 C0 2.01 0 1.02 0 0 Z " fill="#8D8D8D" transform="translate(198,423)"/>
<path d="M0 0 C0.98120464 3.05263664 0.98120464 4.94736336 0 8 C1.65 8 3.3 8 5 8 C5.33 9.32 5.66 10.64 6 12 C5.01 11.67 4.02 11.34 3 11 C3 10.34 3 9.68 3 9 C1.68 9 0.36 9 -1 9 C-1.125 2.25 -1.125 2.25 0 0 Z " fill="#7D7D7D" transform="translate(192,436)"/>
<path d="M0 0 C0.33 0.66 0.66 1.32 1 2 C-0.65 3.98 -2.3 5.96 -4 8 C-4.99 7.67 -5.98 7.34 -7 7 C-4.69 4.69 -2.38 2.38 0 0 Z " fill="#BFBFBF" transform="translate(319,96)"/>
<path d="M0 0 C0.66 0 1.32 0 2 0 C1.375 1.875 1.375 1.875 0 4 C-3.125 5.25 -3.125 5.25 -6 6 C-4 4 -2 2 0 0 Z " fill="#BDBDBB" transform="translate(334,83)"/>
<path d="M0 0 C1.32 0 2.64 0 4 0 C4 3.96 4 7.92 4 12 C3.67 12 3.34 12 3 12 C2.92652344 10.95199219 2.92652344 10.95199219 2.8515625 9.8828125 C2.73941406 8.51769531 2.73941406 8.51769531 2.625 7.125 C2.55539062 6.22007812 2.48578125 5.31515625 2.4140625 4.3828125 C2.20431868 1.82058097 2.20431868 1.82058097 0 0 Z " fill="#1E1E1E" transform="translate(568,468)"/>
<path d="M0 0 C0.66 0.33 1.32 0.66 2 1 C2 3.97 2 6.94 2 10 C1.01 10 0.02 10 -1 10 C-0.67 6.7 -0.34 3.4 0 0 Z " fill="#1E1E1E" transform="translate(548,455)"/>
<path d="M0 0 C0.99 0.66 1.98 1.32 3 2 C1.02 2.66 -0.96 3.32 -3 4 C-3 3.01 -3 2.02 -3 1 C-2.01 0.67 -1.02 0.34 0 0 Z " fill="#1C1C1C" transform="translate(180,436)"/>
<path d="M0 0 C0.33 0 0.66 0 1 0 C1 3.3 1 6.6 1 10 C0.67 10 0.34 10 0 10 C0 6.7 0 3.4 0 0 Z " fill="#1F1F1E" transform="translate(551,456)"/>
<path d="M0 0 C0.33 0 0.66 0 1 0 C1 2.97 1 5.94 1 9 C0.67 9 0.34 9 0 9 C0 6.03 0 3.06 0 0 Z " fill="#1E1E1E" transform="translate(568,471)"/>
<path d="M0 0 C2.64 0 5.28 0 8 0 C8 0.33 8 0.66 8 1 C5.36 1 2.72 1 0 1 C0 0.67 0 0.34 0 0 Z " fill="#202020" transform="translate(752,452)"/>
<path d="M0 0 C2.64 0 5.28 0 8 0 C8 0.33 8 0.66 8 1 C5.36 1 2.72 1 0 1 C0 0.67 0 0.34 0 0 Z " fill="#202020" transform="translate(192,452)"/>
<path d="M0 0 C2.475 0.99 2.475 0.99 5 2 C4.01 2.33 3.02 2.66 2 3 C1.34 2.01 0.68 1.02 0 0 Z " fill="#1D1D1D" transform="translate(547,484)"/>
<path d="M0 0 C0.33 0.99 0.66 1.98 1 3 C0.01 3.33 -0.98 3.66 -2 4 C-1.34 2.68 -0.68 1.36 0 0 Z " fill="#1F1F1F" transform="translate(185,436)"/>
<path d="M0 0 C0.99 0.33 1.98 0.66 3 1 C2.67 1.66 2.34 2.32 2 3 C1.34 2.67 0.68 2.34 0 2 C0 1.34 0 0.68 0 0 Z " fill="#1C1C1C" transform="translate(181,434)"/>
<path d="M0 0 C0.99 0 1.98 0 3 0 C3 0.66 3 1.32 3 2 C2.01 1.67 1.02 1.34 0 1 C0 0.67 0 0.34 0 0 Z " fill="#1C1C1C" transform="translate(547,481)"/>
<path d="M0 0 C0.66 0.33 1.32 0.66 2 1 C1.01 1 0.02 1 -1 1 C-0.67 0.67 -0.34 0.34 0 0 Z " fill="#1C1C1C" transform="translate(562,496)"/>
<path d="M0 0 C4 1 4 1 4 1 Z " fill="#1F1F1F" transform="translate(755,446)"/>
<path d="M0 0 C0.99 0.495 0.99 0.495 2 1 C1.01 1.495 1.01 1.495 0 2 C0 1.34 0 0.68 0 0 Z " fill="#1C1C1B" transform="translate(569,495)"/>
<path d="M0 0 C0.66 0 1.32 0 2 0 C1.67 0.66 1.34 1.32 1 2 C0.67 1.34 0.34 0.68 0 0 Z " fill="#1C1C1C" transform="translate(556,491)"/>
<path d="M0 0 C0.66 0.66 1.32 1.32 2 2 C1.34 2 0.68 2 0 2 C0 1.34 0 0.68 0 0 Z " fill="#1B1B1B" transform="translate(558,488)"/>
<path d="M0 0 C0.66 0 1.32 0 2 0 C1.67 0.66 1.34 1.32 1 2 C0.67 1.34 0.34 0.68 0 0 Z " fill="#1C1C1C" transform="translate(553,489)"/>
<path d="" fill="#1C1C1C" transform="translate(0,0)"/>
<path d="" fill="#1C1C1C" transform="translate(0,0)"/>
<path d="M0 0 C3 1 3 1 3 1 Z " fill="#1E1E1E" transform="translate(542,452)"/>
<path d="" fill="#1C1C1C" transform="translate(0,0)"/>
<path d="" fill="#1D1D1D" transform="translate(0,0)"/>
<path d="M0 0 C2 1 2 1 2 1 Z " fill="#1C1C1C" transform="translate(539,472)"/>
<path d="" fill="#1D1D1D" transform="translate(0,0)"/>
<path d="M0 0 C2 1 2 1 2 1 Z " fill="#1A1A1A" transform="translate(741,454)"/>
<path d="M0 0 C2 1 2 1 2 1 Z " fill="#1F1F1F" transform="translate(550,454)"/>
<path d="" fill="#1F1F1F" transform="translate(0,0)"/>
<path d="M0 0 C2 1 2 1 2 1 Z " fill="#1B1B1B" transform="translate(561,447)"/>
<path d="M0 0 C2 1 2 1 2 1 Z " fill="#1C1C1C" transform="translate(193,447)"/>
<path d="" fill="#1A1A1A" transform="translate(0,0)"/>
<path d="" fill="#0D0D0D" transform="translate(0,0)"/>
<path d="" fill="#404040" transform="translate(0,0)"/>
<path d="" fill="#1D1D1D" transform="translate(0,0)"/>
<path d="" fill="#171717" transform="translate(0,0)"/>
<path d="" fill="#1E1E1E" transform="translate(0,0)"/>
<path d="" fill="#1B1B19" transform="translate(0,0)"/>
<path d="" fill="#1F1F1F" transform="translate(0,0)"/>
<path d="" fill="#181816" transform="translate(0,0)"/>
<path d="" fill="#3E3E3E" transform="translate(0,0)"/>
<path d="" fill="#1C1C1C" transform="translate(0,0)"/>
<path d="" fill="#1E1E1E" transform="translate(0,0)"/>
<path d="" fill="#1F1F1F" transform="translate(0,0)"/>
<path d="" fill="#101010" transform="translate(0,0)"/>
<path d="" fill="#111111" transform="translate(0,0)"/>
<path d="" fill="#1B1B1B" transform="translate(0,0)"/>
<path d="" fill="#111111" transform="translate(0,0)"/>
<path d="" fill="#1C1C1C" transform="translate(0,0)"/>
<path d="" fill="#1D1D1D" transform="translate(0,0)"/>
<path d="" fill="#1B1B1B" transform="translate(0,0)"/>
<path d="" fill="#1A1A1A" transform="translate(0,0)"/>
<path d="" fill="#1D1D1D" transform="translate(0,0)"/>
<path d="" fill="#191919" transform="translate(0,0)"/>
<path d="" fill="#1D1D1B" transform="translate(0,0)"/>
<path d="" fill="#1D1D1D" transform="translate(0,0)"/>
<path d="" fill="#1D1D1D" transform="translate(0,0)"/>
<path d="" fill="#1C1C1A" transform="translate(0,0)"/>
<path d="" fill="#1C1C1C" transform="translate(0,0)"/>
<path d="" fill="#1A1A1A" transform="translate(0,0)"/>
<path d="" fill="#1E1E1C" transform="translate(0,0)"/>
<path d="" fill="#1C1C1A" transform="translate(0,0)"/>
<path d="" fill="#1B1B19" transform="translate(0,0)"/>
<path d="" fill="#1D1D1D" transform="translate(0,0)"/>
<path d="" fill="#1A1A18" transform="translate(0,0)"/>
<path d="" fill="#171717" transform="translate(0,0)"/>
<path d="" fill="#1C1C1C" transform="translate(0,0)"/>
<path d="" fill="#191917" transform="translate(0,0)"/>
<path d="" fill="#1D1D1B" transform="translate(0,0)"/>
<path d="" fill="#1A1A18" transform="translate(0,0)"/>
<path d="" fill="#404040" transform="translate(0,0)"/>
<path d="" fill="#1D1D1D" transform="translate(0,0)"/>
<path d="" fill="#1D1D1D" transform="translate(0,0)"/>
<path d="" fill="#151515" transform="translate(0,0)"/>
<path d="" fill="#3E3E3E" transform="translate(0,0)"/>
<path d="" fill="#202020" transform="translate(0,0)"/>
<path d="" fill="#202020" transform="translate(0,0)"/>
<path d="" fill="#101010" transform="translate(0,0)"/>
<path d="" fill="#101010" transform="translate(0,0)"/>
<path d="" fill="#131313" transform="translate(0,0)"/>
<path d="" fill="#3E3E3E" transform="translate(0,0)"/>
<path d="" fill="#202020" transform="translate(0,0)"/>
<path d="" fill="#1F1F1F" transform="translate(0,0)"/>
<path d="" fill="#151515" transform="translate(0,0)"/>
<path d="" fill="#1E1E1E" transform="translate(0,0)"/>
<path d="" fill="#0E0E0E" transform="translate(0,0)"/>
<path d="" fill="#11110F" transform="translate(0,0)"/>
<path d="" fill="#11110F" transform="translate(0,0)"/>
<path d="" fill="#101010" transform="translate(0,0)"/>
<path d="" fill="#0F0F0F" transform="translate(0,0)"/>
<path d="" fill="#1C1C1A" transform="translate(0,0)"/>
<path d="" fill="#444444" transform="translate(0,0)"/>
</svg>
