<svg width="40" height="40" viewBox="0 0 40 40" fill="none" xmlns="http://www.w3.org/2000/svg">
<path d="M20 28.3333C20.4722 28.3333 20.8683 28.1733 21.1883 27.8533C21.5083 27.5333 21.6678 27.1377 21.6667 26.6666C21.6656 26.1955 21.5056 25.8 21.1867 25.48C20.8678 25.16 20.4722 25 20 25C19.5278 25 19.1322 25.16 18.8133 25.48C18.4944 25.8 18.3344 26.1955 18.3333 26.6666C18.3322 27.1377 18.4922 27.5338 18.8133 27.855C19.1344 28.1761 19.53 28.3355 20 28.3333ZM20 21.6666C20.4722 21.6666 20.8683 21.5066 21.1883 21.1866C21.5083 20.8666 21.6678 20.4711 21.6667 20V13.3333C21.6667 12.8611 21.5067 12.4655 21.1867 12.1466C20.8667 11.8277 20.4711 11.6677 20 11.6666C19.5289 11.6655 19.1333 11.8255 18.8133 12.1466C18.4933 12.4677 18.3333 12.8633 18.3333 13.3333V20C18.3333 20.4722 18.4933 20.8683 18.8133 21.1883C19.1333 21.5083 19.5289 21.6677 20 21.6666ZM8.33333 35C7.41667 35 6.63222 34.6738 5.98 34.0216C5.32778 33.3694 5.00111 32.5844 5 31.6666V8.33329C5 7.41663 5.32667 6.63218 5.98 5.97996C6.63333 5.32774 7.41778 5.00107 8.33333 4.99996H15.3333C15.6944 3.99996 16.2989 3.1944 17.1467 2.58329C17.9944 1.97218 18.9456 1.66663 20 1.66663C21.0544 1.66663 22.0061 1.97218 22.855 2.58329C23.7039 3.1944 24.3078 3.99996 24.6667 4.99996H31.6667C32.5833 4.99996 33.3683 5.32663 34.0217 5.97996C34.675 6.63329 35.0011 7.41774 35 8.33329V31.6666C35 32.5833 34.6739 33.3683 34.0217 34.0216C33.3694 34.675 32.5844 35.0011 31.6667 35H8.33333ZM8.33333 31.6666H31.6667V8.33329H8.33333V31.6666ZM20 7.08329C20.3611 7.08329 20.66 6.96496 20.8967 6.72829C21.1333 6.49163 21.2511 6.19329 21.25 5.83329C21.2489 5.47329 21.1306 5.17496 20.895 4.93829C20.6594 4.70163 20.3611 4.58329 20 4.58329C19.6389 4.58329 19.3406 4.70163 19.105 4.93829C18.8694 5.17496 18.7511 5.47329 18.75 5.83329C18.7489 6.19329 18.8672 6.49218 19.105 6.72996C19.3428 6.96774 19.6411 7.08551 20 7.08329Z" fill="#F24822"/>
</svg>
